<svg version="1.2" xmlns="http://www.w3.org/2000/svg" viewBox="0 0 900 900" width="900" height="900">
	<title>33903-ai</title>
	<style>
		.s0 { fill: #b5b4b4 } 
		.s1 { fill: #4f4f4f } 
		.s2 { fill: #e0e0e0 } 
		.s3 { fill: #c1c1c1 } 
		.s4 { fill: #9b9a9a } 
		.s5 { fill: #333333 } 
		.s6 { fill: #e2e2e2 } 
		.s7 { fill: #fe6201 } 
		.s8 { fill: #d35100 } 
	</style>
	<g id="321353356351 1">
		<g id="&lt;Group&gt;">
			<g id="&lt;Group&gt;">
				<g id="&lt;Group&gt;">
					<g id="&lt;Group&gt;">
						<path id="&lt;Path&gt;" class="s0" d="m306.2 320.6c0 30.7-24.9 55.5-55.5 55.5-30.7 0-55.5-24.8-55.5-55.5 0-30.6 24.8-55.5 55.5-55.5 30.6 0 55.5 24.9 55.5 55.5z"/>
					</g>
				</g>
				<g id="&lt;Group&gt;">
					<g id="&lt;Group&gt;">
						<path id="&lt;Path&gt;" class="s1" d="m284.4 320.6c0 18.6-15.1 33.7-33.7 33.7-18.7 0-33.8-15.1-33.8-33.7 0-18.6 15.1-33.7 33.8-33.7 18.6 0 33.7 15.1 33.7 33.7z"/>
					</g>
				</g>
				<g id="&lt;Group&gt;">
					<g id="&lt;Group&gt;">
						<path id="&lt;Path&gt;" class="s1" d="m284.4 320.6c0 18.6-15.1 33.7-33.7 33.7-18.7 0-33.8-15.1-33.8-33.7 0-18.6 15.1-33.7 33.8-33.7 18.6 0 33.7 15.1 33.7 33.7z"/>
					</g>
				</g>
				<g id="&lt;Group&gt;">
					<g id="&lt;Group&gt;">
						<path id="&lt;Path&gt;" class="s2" d="m262.3 320.6c0 6.4-5.2 11.7-11.6 11.7-6.5 0-11.7-5.3-11.7-11.7 0-6.4 5.2-11.6 11.7-11.6 6.4 0 11.6 5.2 11.6 11.6z"/>
					</g>
				</g>
				<g id="&lt;Group&gt;">
					<g id="&lt;Group&gt;">
						<path id="&lt;Path&gt;" class="s3" d="m261 320.6c0 5.7-4.6 10.3-10.3 10.3-5.7 0-10.3-4.6-10.3-10.3 0-5.7 4.6-10.3 10.3-10.3 5.7 0 10.3 4.6 10.3 10.3z"/>
					</g>
				</g>
				<g id="&lt;Group&gt;">
					<g id="&lt;Group&gt;">
						<g id="&lt;Group&gt;">
							<path id="&lt;Path&gt;" class="s4" d="m241 286.8l-1.9-1.1 11-19.1 1.9 1.1z"/>
						</g>
					</g>
					<g id="&lt;Group&gt;">
						<g id="&lt;Group&gt;">
							<path id="&lt;Path&gt;" class="s1" d="m270.5 272.7c-0.1 0.7-0.7 1.2-1.4 1.1-0.7-0.1-1.2-0.7-1.1-1.4 0.1-0.7 0.7-1.2 1.4-1.1 0.7 0.1 1.2 0.7 1.1 1.4z"/>
						</g>
					</g>
					<g id="&lt;Group&gt;">
						<g id="&lt;Group&gt;">
							<path id="&lt;Path&gt;" class="s1" d="m263.6 273.8c-0.1 0.7-0.7 1.2-1.4 1.1-0.7-0.1-1.2-0.7-1.1-1.4 0.1-0.7 0.7-1.2 1.4-1.1 0.6 0.1 1.1 0.7 1.1 1.4z"/>
						</g>
					</g>
					<g id="&lt;Group&gt;">
						<g id="&lt;Group&gt;">
							<path id="&lt;Path&gt;" class="s1" d="m256.6 276c-0.1 0.6-0.7 1.1-1.4 1-0.6 0-1.1-0.7-1-1.3 0-0.7 0.7-1.2 1.3-1.1 0.7 0.1 1.2 0.7 1.1 1.4z"/>
						</g>
					</g>
					<g id="&lt;Group&gt;">
						<g id="&lt;Group&gt;">
							<path id="&lt;Path&gt;" class="s1" d="m251.9 279.8c-0.1 0.7-0.7 1.2-1.4 1.1-0.7-0.1-1.1-0.7-1.1-1.4 0.1-0.7 0.7-1.2 1.4-1.1 0.7 0.1 1.2 0.7 1.1 1.4z"/>
						</g>
					</g>
					<g id="&lt;Group&gt;">
						<g id="&lt;Group&gt;">
							<path id="&lt;Path&gt;" class="s1" d="m247.6 284.2c-0.1 0.7-0.7 1.2-1.4 1.1-0.7 0-1.1-0.7-1.1-1.3 0.1-0.7 0.7-1.2 1.4-1.1 0.7 0 1.2 0.7 1.1 1.3z"/>
						</g>
					</g>
					<g id="&lt;Group&gt;">
						<g id="&lt;Group&gt;">
							<path id="&lt;Path&gt;" class="s1" d="m256.9 284.2c-0.1 0.6-0.6 1.2-1.3 1.1-0.7 0-1.2-0.6-1.2-1.3 0-0.6 0.6-1.2 1.3-1.1 0.7 0 1.2 0.6 1.2 1.3z"/>
						</g>
					</g>
					<g id="&lt;Group&gt;">
						<g id="&lt;Group&gt;">
							<path id="&lt;Path&gt;" class="s1" d="m262.2 280.9c0 0.7-0.6 1.3-1.3 1.2-0.7 0-1.2-0.6-1.2-1.3 0-0.7 0.6-1.2 1.3-1.2 0.7 0.1 1.2 0.7 1.2 1.3z"/>
						</g>
					</g>
					<g id="&lt;Group&gt;">
						<g id="&lt;Group&gt;">
							<path id="&lt;Path&gt;" class="s1" d="m269.7 279.3c0 0.7-0.6 1.2-1.3 1.2-0.7 0-1.2-0.6-1.2-1.3 0.1-0.7 0.7-1.2 1.3-1.2 0.7 0 1.3 0.6 1.2 1.3z"/>
						</g>
					</g>
					<g id="&lt;Group&gt;">
						<g id="&lt;Group&gt;">
							<path id="&lt;Path&gt;" class="s1" d="m277 278.8c0 0.7-0.6 1.2-1.3 1.2-0.7-0.1-1.2-0.6-1.2-1.3 0-0.7 0.6-1.2 1.3-1.2 0.7 0 1.2 0.6 1.2 1.3z"/>
						</g>
					</g>
				</g>
				<g id="&lt;Group&gt;">
					<g id="&lt;Group&gt;">
						<g id="&lt;Group&gt;">
							<path id="&lt;Path&gt;" class="s4" d="m221.5 301l-2.1 0.4-3.9-21.8 2.2-0.4z"/>
						</g>
					</g>
					<g id="&lt;Group&gt;">
						<g id="&lt;Group&gt;">
							<path id="&lt;Path&gt;" class="s1" d="m235 271.2c0.4 0.5 0.3 1.3-0.3 1.7-0.6 0.4-1.4 0.2-1.7-0.4-0.4-0.5-0.3-1.3 0.3-1.7 0.6-0.4 1.4-0.2 1.7 0.4z"/>
						</g>
					</g>
					<g id="&lt;Group&gt;">
						<g id="&lt;Group&gt;">
							<path id="&lt;Path&gt;" class="s1" d="m230.4 276.5c0.4 0.5 0.3 1.3-0.3 1.7-0.6 0.4-1.4 0.2-1.7-0.4-0.4-0.6-0.3-1.3 0.3-1.7 0.6-0.4 1.4-0.2 1.7 0.4z"/>
						</g>
					</g>
					<g id="&lt;Group&gt;">
						<g id="&lt;Group&gt;">
							<path id="&lt;Path&gt;" class="s1" d="m226.5 282.6c0.4 0.6 0.2 1.3-0.3 1.7-0.6 0.4-1.4 0.2-1.8-0.4-0.3-0.5-0.2-1.3 0.4-1.7 0.6-0.4 1.3-0.2 1.7 0.4z"/>
						</g>
					</g>
					<g id="&lt;Group&gt;">
						<g id="&lt;Group&gt;">
							<path id="&lt;Path&gt;" class="s1" d="m225.4 288.6c0.4 0.5 0.2 1.3-0.4 1.7-0.6 0.4-1.3 0.2-1.7-0.4-0.4-0.6-0.2-1.3 0.4-1.7 0.5-0.4 1.3-0.2 1.7 0.4z"/>
						</g>
					</g>
					<g id="&lt;Group&gt;">
						<g id="&lt;Group&gt;">
							<path id="&lt;Path&gt;" class="s1" d="m224.9 294.7c0.4 0.6 0.3 1.4-0.3 1.7-0.6 0.4-1.4 0.3-1.7-0.3-0.4-0.6-0.3-1.4 0.3-1.7 0.6-0.4 1.4-0.2 1.7 0.3z"/>
						</g>
					</g>
					<g id="&lt;Group&gt;">
						<g id="&lt;Group&gt;">
							<path id="&lt;Path&gt;" class="s1" d="m232 288.7c0.4 0.5 0.3 1.3-0.2 1.7-0.6 0.5-1.4 0.3-1.8-0.2-0.4-0.5-0.3-1.3 0.2-1.7 0.6-0.5 1.4-0.4 1.8 0.2z"/>
						</g>
					</g>
					<g id="&lt;Group&gt;">
						<g id="&lt;Group&gt;">
							<path id="&lt;Path&gt;" class="s1" d="m234 282.8c0.4 0.6 0.3 1.3-0.2 1.8-0.6 0.4-1.4 0.3-1.8-0.3-0.4-0.5-0.3-1.3 0.3-1.7 0.5-0.4 1.3-0.3 1.7 0.2z"/>
						</g>
					</g>
					<g id="&lt;Group&gt;">
						<g id="&lt;Group&gt;">
							<path id="&lt;Path&gt;" class="s1" d="m238.7 276.7c0.4 0.6 0.3 1.3-0.2 1.8-0.6 0.4-1.3 0.3-1.8-0.3-0.4-0.5-0.3-1.3 0.3-1.7 0.5-0.4 1.3-0.3 1.7 0.2z"/>
						</g>
					</g>
					<g id="&lt;Group&gt;">
						<g id="&lt;Group&gt;">
							<path id="&lt;Path&gt;" class="s1" d="m243.9 271.7c0.5 0.5 0.4 1.3-0.2 1.7-0.5 0.4-1.3 0.3-1.7-0.2-0.4-0.6-0.3-1.3 0.2-1.8 0.5-0.4 1.3-0.3 1.7 0.3z"/>
						</g>
					</g>
				</g>
				<g id="&lt;Group&gt;">
					<g id="&lt;Group&gt;">
						<g id="&lt;Group&gt;">
							<path id="&lt;Path&gt;" class="s4" d="m215.7 324.3l-1.4 1.7-16.9-14.3 1.3-1.6z"/>
						</g>
					</g>
					<g id="&lt;Group&gt;">
						<g id="&lt;Group&gt;">
							<path id="&lt;Path&gt;" class="s1" d="m206.9 292.8c0.7 0.2 1 0.9 0.8 1.5-0.2 0.7-0.8 1.1-1.5 0.9-0.7-0.2-1-0.9-0.8-1.6 0.2-0.6 0.9-1 1.5-0.8z"/>
						</g>
					</g>
					<g id="&lt;Group&gt;">
						<g id="&lt;Group&gt;">
							<path id="&lt;Path&gt;" class="s1" d="m206.8 299.8c0.6 0.2 1 0.9 0.8 1.5-0.2 0.7-0.9 1.1-1.5 0.9-0.7-0.2-1.1-0.9-0.9-1.6 0.2-0.6 0.9-1 1.6-0.8z"/>
						</g>
					</g>
					<g id="&lt;Group&gt;">
						<g id="&lt;Group&gt;">
							<path id="&lt;Path&gt;" class="s1" d="m207.7 307c0.7 0.2 1.1 0.9 0.9 1.5-0.2 0.7-0.9 1.1-1.6 0.9-0.7-0.2-1-0.9-0.8-1.6 0.2-0.6 0.9-1 1.5-0.8z"/>
						</g>
					</g>
					<g id="&lt;Group&gt;">
						<g id="&lt;Group&gt;">
							<path id="&lt;Path&gt;" class="s1" d="m210.7 312.3c0.6 0.2 1 0.9 0.8 1.6-0.2 0.6-0.9 1-1.5 0.8-0.7-0.2-1.1-0.9-0.9-1.6 0.2-0.6 0.9-1 1.6-0.8z"/>
						</g>
					</g>
					<g id="&lt;Group&gt;">
						<g id="&lt;Group&gt;">
							<path id="&lt;Path&gt;" class="s1" d="m214.3 317.3c0.7 0.2 1 0.9 0.8 1.6-0.1 0.6-0.8 1-1.5 0.8-0.7-0.2-1-0.9-0.8-1.5 0.2-0.7 0.9-1.1 1.5-0.9z"/>
						</g>
					</g>
					<g id="&lt;Group&gt;">
						<g id="&lt;Group&gt;">
							<path id="&lt;Path&gt;" class="s1" d="m215.8 308.2c0.7 0.1 1.1 0.8 1 1.5-0.2 0.6-0.8 1-1.5 0.9-0.7-0.2-1.1-0.8-0.9-1.5 0.1-0.7 0.8-1.1 1.4-0.9z"/>
						</g>
					</g>
					<g id="&lt;Group&gt;">
						<g id="&lt;Group&gt;">
							<path id="&lt;Path&gt;" class="s1" d="m213.6 302.4c0.7 0.1 1.1 0.8 0.9 1.5-0.1 0.6-0.8 1-1.4 0.9-0.7-0.1-1.1-0.8-1-1.5 0.2-0.7 0.8-1.1 1.5-0.9z"/>
						</g>
					</g>
					<g id="&lt;Group&gt;">
						<g id="&lt;Group&gt;">
							<path id="&lt;Path&gt;" class="s1" d="m213.3 294.7c0.7 0.1 1.1 0.8 0.9 1.5-0.1 0.6-0.8 1.1-1.4 0.9-0.7-0.1-1.1-0.8-1-1.5 0.2-0.6 0.8-1.1 1.5-0.9z"/>
						</g>
					</g>
					<g id="&lt;Group&gt;">
						<g id="&lt;Group&gt;">
							<path id="&lt;Path&gt;" class="s1" d="m214.1 287.4c0.6 0.2 1 0.8 0.9 1.5-0.2 0.7-0.8 1.1-1.5 1-0.7-0.2-1.1-0.8-0.9-1.5 0.1-0.7 0.8-1.1 1.5-1z"/>
						</g>
					</g>
				</g>
				<g id="&lt;Group&gt;">
					<g id="&lt;Group&gt;">
						<g id="&lt;Group&gt;">
							<path id="&lt;Path&gt;" class="s4" d="m226.3 345.9v2.2h-22.2v-2.2z"/>
						</g>
					</g>
					<g id="&lt;Group&gt;">
						<g id="&lt;Group&gt;">
							<path id="&lt;Path&gt;" class="s1" d="m199.3 327.4c0.6-0.2 1.3 0 1.6 0.7 0.3 0.6 0 1.3-0.7 1.6-0.6 0.3-1.3 0-1.6-0.6-0.3-0.7 0-1.4 0.7-1.7z"/>
						</g>
					</g>
					<g id="&lt;Group&gt;">
						<g id="&lt;Group&gt;">
							<path id="&lt;Path&gt;" class="s1" d="m203.7 332.9c0.6-0.3 1.3 0 1.6 0.6 0.3 0.7 0 1.4-0.6 1.7-0.7 0.2-1.4-0.1-1.7-0.7-0.2-0.6 0-1.4 0.7-1.6z"/>
						</g>
					</g>
					<g id="&lt;Group&gt;">
						<g id="&lt;Group&gt;">
							<path id="&lt;Path&gt;" class="s1" d="m209 337.8c0.6-0.3 1.4 0 1.6 0.6 0.3 0.7 0 1.4-0.6 1.7-0.6 0.2-1.4 0-1.6-0.7-0.3-0.6 0-1.3 0.6-1.6z"/>
						</g>
					</g>
					<g id="&lt;Group&gt;">
						<g id="&lt;Group&gt;">
							<path id="&lt;Path&gt;" class="s1" d="m214.7 340c0.6-0.3 1.4 0 1.6 0.6 0.3 0.6 0 1.4-0.6 1.6-0.6 0.3-1.4 0-1.6-0.6-0.3-0.6 0-1.4 0.6-1.6z"/>
						</g>
					</g>
					<g id="&lt;Group&gt;">
						<g id="&lt;Group&gt;">
							<path id="&lt;Path&gt;" class="s1" d="m220.7 341.5c0.6-0.3 1.4 0 1.6 0.6 0.3 0.6 0 1.4-0.6 1.6-0.6 0.3-1.4 0-1.6-0.6-0.3-0.6 0-1.4 0.6-1.6z"/>
						</g>
					</g>
					<g id="&lt;Group&gt;">
						<g id="&lt;Group&gt;">
							<path id="&lt;Path&gt;" class="s1" d="m216 333.5c0.6-0.3 1.3-0.1 1.7 0.5 0.3 0.6 0 1.4-0.6 1.7-0.6 0.3-1.3 0.1-1.6-0.6-0.4-0.6-0.1-1.3 0.5-1.6z"/>
						</g>
					</g>
					<g id="&lt;Group&gt;">
						<g id="&lt;Group&gt;">
							<path id="&lt;Path&gt;" class="s1" d="m210.5 330.5c0.7-0.3 1.4-0.1 1.7 0.5 0.3 0.6 0.1 1.4-0.5 1.7-0.6 0.3-1.4 0.1-1.7-0.6-0.3-0.6-0.1-1.3 0.5-1.6z"/>
						</g>
					</g>
					<g id="&lt;Group&gt;">
						<g id="&lt;Group&gt;">
							<path id="&lt;Path&gt;" class="s1" d="m205.4 324.8c0.6-0.3 1.3-0.1 1.6 0.5 0.4 0.6 0.1 1.4-0.5 1.7-0.6 0.3-1.3 0.1-1.7-0.6-0.3-0.6 0-1.3 0.6-1.6z"/>
						</g>
					</g>
					<g id="&lt;Group&gt;">
						<g id="&lt;Group&gt;">
							<path id="&lt;Path&gt;" class="s1" d="m201.3 318.7c0.6-0.3 1.3 0 1.7 0.6 0.3 0.6 0 1.3-0.6 1.6-0.6 0.4-1.3 0.1-1.6-0.5-0.4-0.6-0.1-1.3 0.5-1.7z"/>
						</g>
					</g>
				</g>
				<g id="&lt;Group&gt;">
					<g id="&lt;Group&gt;">
						<g id="&lt;Group&gt;">
							<path id="&lt;Path&gt;" class="s4" d="m248.2 355.7l1.4 1.7-16.9 14.2-1.4-1.7z"/>
						</g>
					</g>
					<g id="&lt;Group&gt;">
						<g id="&lt;Group&gt;">
							<path id="&lt;Path&gt;" class="s1" d="m215.7 358.9c0.3-0.6 1-0.9 1.6-0.6 0.6 0.3 0.9 1.1 0.6 1.7-0.3 0.6-1.1 0.9-1.7 0.5-0.6-0.3-0.8-1-0.5-1.6z"/>
						</g>
					</g>
					<g id="&lt;Group&gt;">
						<g id="&lt;Group&gt;">
							<path id="&lt;Path&gt;" class="s1" d="m222.6 360.2c0.3-0.6 1-0.8 1.6-0.5 0.6 0.3 0.9 1 0.6 1.6-0.3 0.6-1.1 0.9-1.7 0.6-0.6-0.3-0.9-1.1-0.5-1.7z"/>
						</g>
					</g>
					<g id="&lt;Group&gt;">
						<g id="&lt;Group&gt;">
							<path id="&lt;Path&gt;" class="s1" d="m229.8 360.5c0.3-0.6 1.1-0.8 1.7-0.5 0.6 0.3 0.8 1.1 0.5 1.7-0.3 0.6-1 0.8-1.6 0.5-0.7-0.3-0.9-1-0.6-1.7z"/>
						</g>
					</g>
					<g id="&lt;Group&gt;">
						<g id="&lt;Group&gt;">
							<path id="&lt;Path&gt;" class="s1" d="m235.6 358.5c0.3-0.6 1-0.8 1.6-0.5 0.6 0.3 0.9 1.1 0.6 1.7-0.3 0.6-1.1 0.8-1.7 0.5-0.6-0.3-0.9-1-0.5-1.7z"/>
						</g>
					</g>
					<g id="&lt;Group&gt;">
						<g id="&lt;Group&gt;">
							<path id="&lt;Path&gt;" class="s1" d="m241.1 355.8c0.3-0.6 1.1-0.8 1.7-0.5 0.6 0.3 0.8 1.1 0.5 1.7-0.3 0.6-1 0.8-1.6 0.5-0.6-0.3-0.9-1-0.6-1.7z"/>
						</g>
					</g>
					<g id="&lt;Group&gt;">
						<g id="&lt;Group&gt;">
							<path id="&lt;Path&gt;" class="s1" d="m232.4 352.8c0.2-0.7 1-1 1.6-0.7 0.6 0.2 0.9 1 0.7 1.6-0.3 0.6-1 0.9-1.7 0.7-0.6-0.3-0.9-1-0.6-1.6z"/>
						</g>
					</g>
					<g id="&lt;Group&gt;">
						<g id="&lt;Group&gt;">
							<path id="&lt;Path&gt;" class="s1" d="m226.3 354c0.2-0.7 1-1 1.6-0.7 0.6 0.3 0.9 1 0.7 1.6-0.3 0.6-1 0.9-1.7 0.7-0.6-0.3-0.9-1-0.6-1.6z"/>
						</g>
					</g>
					<g id="&lt;Group&gt;">
						<g id="&lt;Group&gt;">
							<path id="&lt;Path&gt;" class="s1" d="m218.6 352.9c0.3-0.6 1-0.9 1.7-0.7 0.6 0.3 0.9 1 0.6 1.7-0.2 0.6-1 0.9-1.6 0.6-0.6-0.2-0.9-1-0.7-1.6z"/>
						</g>
					</g>
					<g id="&lt;Group&gt;">
						<g id="&lt;Group&gt;">
							<path id="&lt;Path&gt;" class="s1" d="m211.6 350.9c0.3-0.6 1-0.9 1.7-0.7 0.6 0.3 0.9 1 0.6 1.7-0.2 0.6-1 0.9-1.6 0.6-0.6-0.2-0.9-0.9-0.7-1.6z"/>
						</g>
					</g>
				</g>
				<g id="&lt;Group&gt;">
					<g id="&lt;Group&gt;">
						<g id="&lt;Group&gt;">
							<path id="&lt;Path&gt;" class="s4" d="m271.4 349l2.1 0.4-3.9 21.8-2.1-0.4z"/>
						</g>
					</g>
					<g id="&lt;Group&gt;">
						<g id="&lt;Group&gt;">
							<path id="&lt;Path&gt;" class="s1" d="m248.4 372.4c-0.1-0.6 0.3-1.3 1-1.5 0.6-0.1 1.3 0.3 1.5 1 0.1 0.6-0.3 1.3-1 1.5-0.6 0.1-1.3-0.3-1.5-1z"/>
						</g>
					</g>
					<g id="&lt;Group&gt;">
						<g id="&lt;Group&gt;">
							<path id="&lt;Path&gt;" class="s1" d="m254.6 369c-0.2-0.6 0.2-1.3 0.9-1.5 0.7-0.1 1.3 0.3 1.5 1 0.2 0.6-0.3 1.3-0.9 1.5-0.7 0.1-1.4-0.3-1.5-1z"/>
						</g>
					</g>
					<g id="&lt;Group&gt;">
						<g id="&lt;Group&gt;">
							<path id="&lt;Path&gt;" class="s1" d="m260.4 364.6c-0.2-0.7 0.2-1.3 0.9-1.5 0.6-0.1 1.3 0.3 1.5 0.9 0.1 0.7-0.3 1.4-1 1.5-0.6 0.2-1.3-0.2-1.4-0.9z"/>
						</g>
					</g>
					<g id="&lt;Group&gt;">
						<g id="&lt;Group&gt;">
							<path id="&lt;Path&gt;" class="s1" d="m263.5 359.4c-0.2-0.7 0.2-1.3 0.9-1.5 0.7-0.2 1.3 0.3 1.5 0.9 0.1 0.7-0.3 1.4-0.9 1.5-0.7 0.2-1.4-0.2-1.5-0.9z"/>
						</g>
					</g>
					<g id="&lt;Group&gt;">
						<g id="&lt;Group&gt;">
							<path id="&lt;Path&gt;" class="s1" d="m266 353.7c-0.2-0.6 0.3-1.3 0.9-1.4 0.7-0.2 1.4 0.2 1.5 0.9 0.2 0.6-0.2 1.3-0.9 1.5-0.7 0.1-1.4-0.3-1.5-1z"/>
						</g>
					</g>
					<g id="&lt;Group&gt;">
						<g id="&lt;Group&gt;">
							<path id="&lt;Path&gt;" class="s1" d="m257.3 357c-0.2-0.6 0.2-1.3 0.8-1.6 0.7-0.2 1.4 0.2 1.6 0.9 0.2 0.6-0.2 1.3-0.8 1.5-0.7 0.2-1.4-0.1-1.6-0.8z"/>
						</g>
					</g>
					<g id="&lt;Group&gt;">
						<g id="&lt;Group&gt;">
							<path id="&lt;Path&gt;" class="s1" d="m253.4 361.8c-0.2-0.6 0.2-1.3 0.8-1.5 0.7-0.2 1.4 0.1 1.6 0.8 0.2 0.7-0.2 1.3-0.8 1.6-0.7 0.2-1.4-0.2-1.6-0.9z"/>
						</g>
					</g>
					<g id="&lt;Group&gt;">
						<g id="&lt;Group&gt;">
							<path id="&lt;Path&gt;" class="s1" d="m246.9 365.9c-0.2-0.6 0.1-1.3 0.8-1.5 0.7-0.2 1.4 0.1 1.6 0.8 0.2 0.7-0.2 1.4-0.9 1.6-0.6 0.2-1.3-0.2-1.5-0.9z"/>
						</g>
					</g>
					<g id="&lt;Group&gt;">
						<g id="&lt;Group&gt;">
							<path id="&lt;Path&gt;" class="s1" d="m240.2 368.9c-0.2-0.6 0.2-1.3 0.9-1.5 0.6-0.2 1.3 0.1 1.5 0.8 0.2 0.6-0.1 1.3-0.8 1.5-0.7 0.2-1.3-0.1-1.6-0.8z"/>
						</g>
					</g>
				</g>
				<g id="&lt;Group&gt;">
					<g id="&lt;Group&gt;">
						<g id="&lt;Group&gt;">
							<path id="&lt;Path&gt;" class="s4" d="m284.8 329.1l1.9-1.1 11 19.2-1.8 1.1z"/>
						</g>
					</g>
					<g id="&lt;Group&gt;">
						<g id="&lt;Group&gt;">
							<path id="&lt;Path&gt;" class="s1" d="m282.3 361.7c-0.6-0.4-0.7-1.2-0.3-1.7 0.4-0.6 1.2-0.7 1.8-0.3 0.5 0.5 0.6 1.2 0.2 1.8-0.4 0.5-1.2 0.6-1.7 0.2z"/>
						</g>
					</g>
					<g id="&lt;Group&gt;">
						<g id="&lt;Group&gt;">
							<path id="&lt;Path&gt;" class="s1" d="m284.8 355.2c-0.6-0.4-0.7-1.2-0.3-1.8 0.4-0.5 1.2-0.6 1.8-0.2 0.5 0.4 0.6 1.2 0.2 1.7-0.4 0.6-1.2 0.7-1.7 0.3z"/>
						</g>
					</g>
					<g id="&lt;Group&gt;">
						<g id="&lt;Group&gt;">
							<path id="&lt;Path&gt;" class="s1" d="m286.4 348.1c-0.6-0.4-0.7-1.2-0.3-1.7 0.4-0.6 1.2-0.7 1.8-0.3 0.5 0.4 0.6 1.2 0.2 1.7-0.4 0.6-1.2 0.7-1.7 0.3z"/>
						</g>
					</g>
					<g id="&lt;Group&gt;">
						<g id="&lt;Group&gt;">
							<path id="&lt;Path&gt;" class="s1" d="m285.4 342.1c-0.5-0.4-0.7-1.2-0.3-1.7 0.5-0.6 1.2-0.7 1.8-0.3 0.5 0.4 0.6 1.2 0.2 1.7-0.4 0.6-1.2 0.7-1.7 0.3z"/>
						</g>
					</g>
					<g id="&lt;Group&gt;">
						<g id="&lt;Group&gt;">
							<path id="&lt;Path&gt;" class="s1" d="m283.7 336.1c-0.5-0.4-0.7-1.1-0.2-1.7 0.4-0.5 1.1-0.7 1.7-0.2 0.5 0.4 0.6 1.1 0.2 1.7-0.4 0.5-1.1 0.7-1.7 0.2z"/>
						</g>
					</g>
					<g id="&lt;Group&gt;">
						<g id="&lt;Group&gt;">
							<path id="&lt;Path&gt;" class="s1" d="m279.1 344.2c-0.5-0.3-0.7-1.1-0.3-1.7 0.3-0.6 1.1-0.7 1.7-0.4 0.6 0.4 0.7 1.2 0.4 1.7-0.4 0.6-1.2 0.8-1.8 0.4z"/>
						</g>
					</g>
					<g id="&lt;Group&gt;">
						<g id="&lt;Group&gt;">
							<path id="&lt;Path&gt;" class="s1" d="m279.3 350.4c-0.6-0.3-0.8-1.1-0.4-1.7 0.4-0.6 1.1-0.7 1.7-0.4 0.6 0.4 0.8 1.2 0.4 1.8-0.4 0.5-1.2 0.7-1.7 0.3z"/>
						</g>
					</g>
					<g id="&lt;Group&gt;">
						<g id="&lt;Group&gt;">
							<path id="&lt;Path&gt;" class="s1" d="m276.9 357.8c-0.6-0.4-0.7-1.2-0.4-1.7 0.4-0.6 1.2-0.8 1.7-0.4 0.6 0.3 0.8 1.1 0.4 1.7-0.3 0.6-1.1 0.7-1.7 0.4z"/>
						</g>
					</g>
					<g id="&lt;Group&gt;">
						<g id="&lt;Group&gt;">
							<path id="&lt;Path&gt;" class="s1" d="m273.7 364.3c-0.5-0.4-0.7-1.1-0.3-1.7 0.3-0.6 1.1-0.7 1.7-0.4 0.5 0.4 0.7 1.2 0.3 1.7-0.3 0.6-1.1 0.8-1.7 0.4z"/>
						</g>
					</g>
				</g>
				<g id="&lt;Group&gt;">
					<g id="&lt;Group&gt;">
						<g id="&lt;Group&gt;">
							<path id="&lt;Path&gt;" class="s4" d="m282.3 305.2l0.7-2.1 20.8 7.6-0.7 2z"/>
						</g>
					</g>
					<g id="&lt;Group&gt;">
						<g id="&lt;Group&gt;">
							<path id="&lt;Path&gt;" class="s1" d="m301.3 331.8c-0.7 0-1.3-0.5-1.3-1.2 0-0.7 0.5-1.2 1.2-1.3 0.7 0 1.2 0.5 1.3 1.2 0 0.7-0.5 1.3-1.2 1.3z"/>
						</g>
					</g>
					<g id="&lt;Group&gt;">
						<g id="&lt;Group&gt;">
							<path id="&lt;Path&gt;" class="s1" d="m299 325.2c-0.7 0-1.2-0.5-1.3-1.2 0-0.7 0.5-1.3 1.2-1.3 0.7 0 1.3 0.5 1.3 1.2 0 0.6-0.5 1.2-1.2 1.3z"/>
						</g>
					</g>
					<g id="&lt;Group&gt;">
						<g id="&lt;Group&gt;">
							<path id="&lt;Path&gt;" class="s1" d="m295.7 318.7c-0.7 0.1-1.3-0.5-1.3-1.1-0.1-0.7 0.5-1.3 1.1-1.4 0.7 0 1.3 0.5 1.4 1.2 0 0.7-0.5 1.3-1.2 1.3z"/>
						</g>
					</g>
					<g id="&lt;Group&gt;">
						<g id="&lt;Group&gt;">
							<path id="&lt;Path&gt;" class="s1" d="m291.1 314.7c-0.7 0.1-1.3-0.4-1.3-1.1-0.1-0.7 0.5-1.3 1.1-1.3 0.7-0.1 1.3 0.5 1.3 1.1 0.1 0.7-0.4 1.3-1.1 1.3z"/>
						</g>
					</g>
					<g id="&lt;Group&gt;">
						<g id="&lt;Group&gt;">
							<path id="&lt;Path&gt;" class="s1" d="m286 311.3c-0.7 0-1.3-0.5-1.4-1.2 0-0.7 0.5-1.3 1.2-1.3 0.7 0 1.3 0.5 1.3 1.2 0.1 0.7-0.5 1.2-1.1 1.3z"/>
						</g>
					</g>
					<g id="&lt;Group&gt;">
						<g id="&lt;Group&gt;">
							<path id="&lt;Path&gt;" class="s1" d="m287.7 320.4c-0.7 0.1-1.3-0.4-1.4-1.1-0.1-0.6 0.4-1.3 1-1.4 0.7-0.1 1.3 0.4 1.4 1.1 0.1 0.7-0.4 1.3-1 1.4z"/>
						</g>
					</g>
					<g id="&lt;Group&gt;">
						<g id="&lt;Group&gt;">
							<path id="&lt;Path&gt;" class="s1" d="m291.7 325.1c-0.6 0.1-1.3-0.4-1.3-1.1-0.1-0.7 0.3-1.3 1-1.4 0.7-0.1 1.3 0.4 1.4 1.1 0.1 0.7-0.4 1.3-1.1 1.4z"/>
						</g>
					</g>
					<g id="&lt;Group&gt;">
						<g id="&lt;Group&gt;">
							<path id="&lt;Path&gt;" class="s1" d="m294.7 332.2c-0.7 0.1-1.3-0.4-1.4-1.1-0.1-0.6 0.4-1.3 1-1.4 0.7 0 1.3 0.4 1.4 1.1 0.1 0.7-0.4 1.3-1 1.4z"/>
						</g>
					</g>
					<g id="&lt;Group&gt;">
						<g id="&lt;Group&gt;">
							<path id="&lt;Path&gt;" class="s1" d="m296.4 339.3c-0.7 0.1-1.3-0.4-1.4-1.1-0.1-0.7 0.4-1.3 1.1-1.4 0.7-0.1 1.3 0.4 1.4 1.1 0.1 0.7-0.4 1.3-1.1 1.4z"/>
						</g>
					</g>
				</g>
				<g id="&lt;Group&gt;">
					<g id="&lt;Group&gt;">
						<g id="&lt;Group&gt;">
							<path id="&lt;Path&gt;" class="s4" d="m264.9 288.5l-0.7-2.1 20.8-7.5 0.7 2z"/>
						</g>
					</g>
					<g id="&lt;Group&gt;">
						<g id="&lt;Group&gt;">
							<path id="&lt;Path&gt;" class="s1" d="m296.7 296.6c-0.5 0.5-1.3 0.5-1.8 0-0.5-0.5-0.4-1.3 0.1-1.8 0.5-0.4 1.2-0.4 1.7 0.1 0.5 0.5 0.5 1.3 0 1.7z"/>
						</g>
					</g>
					<g id="&lt;Group&gt;">
						<g id="&lt;Group&gt;">
							<path id="&lt;Path&gt;" class="s1" d="m290.6 293c-0.5 0.5-1.2 0.5-1.7 0-0.5-0.5-0.5-1.3 0-1.8 0.5-0.5 1.3-0.4 1.8 0.1 0.5 0.5 0.4 1.3-0.1 1.7z"/>
						</g>
					</g>
					<g id="&lt;Group&gt;">
						<g id="&lt;Group&gt;">
							<path id="&lt;Path&gt;" class="s1" d="m283.9 290.2c-0.5 0.5-1.3 0.5-1.7 0-0.5-0.5-0.5-1.3 0-1.8 0.5-0.4 1.3-0.4 1.8 0.1 0.5 0.5 0.4 1.3-0.1 1.7z"/>
						</g>
					</g>
					<g id="&lt;Group&gt;">
						<g id="&lt;Group&gt;">
							<path id="&lt;Path&gt;" class="s1" d="m277.8 290.1c-0.5 0.5-1.2 0.5-1.7 0-0.5-0.5-0.5-1.3 0-1.8 0.5-0.4 1.3-0.4 1.8 0.1 0.5 0.5 0.4 1.3-0.1 1.7z"/>
						</g>
					</g>
					<g id="&lt;Group&gt;">
						<g id="&lt;Group&gt;">
							<path id="&lt;Path&gt;" class="s1" d="m271.7 290.8c-0.5 0.5-1.3 0.4-1.8-0.1-0.4-0.5-0.4-1.3 0.1-1.7 0.5-0.5 1.3-0.5 1.8 0 0.4 0.5 0.4 1.3-0.1 1.8z"/>
						</g>
					</g>
					<g id="&lt;Group&gt;">
						<g id="&lt;Group&gt;">
							<path id="&lt;Path&gt;" class="s1" d="m278.9 296.7c-0.5 0.5-1.3 0.5-1.8 0.1-0.5-0.5-0.5-1.3-0.1-1.8 0.5-0.5 1.3-0.5 1.8-0.1 0.5 0.5 0.5 1.3 0.1 1.8z"/>
						</g>
					</g>
					<g id="&lt;Group&gt;">
						<g id="&lt;Group&gt;">
							<path id="&lt;Path&gt;" class="s1" d="m285 297.6c-0.5 0.5-1.2 0.6-1.8 0.1-0.5-0.5-0.5-1.2 0-1.7 0.4-0.6 1.2-0.6 1.7-0.1 0.5 0.4 0.6 1.2 0.1 1.7z"/>
						</g>
					</g>
					<g id="&lt;Group&gt;">
						<g id="&lt;Group&gt;">
							<path id="&lt;Path&gt;" class="s1" d="m291.8 301.2c-0.4 0.5-1.2 0.6-1.7 0.1-0.5-0.5-0.6-1.3-0.1-1.8 0.5-0.5 1.2-0.5 1.7 0 0.5 0.4 0.6 1.2 0.1 1.7z"/>
						</g>
					</g>
					<g id="&lt;Group&gt;">
						<g id="&lt;Group&gt;">
							<path id="&lt;Path&gt;" class="s1" d="m297.7 305.5c-0.5 0.5-1.2 0.5-1.7 0.1-0.5-0.5-0.6-1.3-0.1-1.8 0.4-0.5 1.2-0.5 1.7-0.1 0.5 0.5 0.6 1.3 0.1 1.8z"/>
						</g>
					</g>
				</g>
				<g id="&lt;Group&gt;">
					<g id="&lt;Group&gt;">
						<path id="&lt;Path&gt;" class="s1" d="m247.3 326.5l-3.4-5.9 3.4-5.9h6.8l3.4 5.9-3.4 5.9z"/>
					</g>
				</g>
				<g id="&lt;Group&gt;">
					<g id="&lt;Group&gt;">
						<path id="&lt;Path&gt;" class="s2" d="m252.5 303.6c0 1-0.8 1.8-1.8 1.8-1 0-1.9-0.8-1.9-1.8 0-1 0.9-1.8 1.9-1.8 1 0 1.8 0.8 1.8 1.8z"/>
					</g>
				</g>
				<g id="&lt;Group&gt;">
					<g id="&lt;Group&gt;">
						<path id="&lt;Path&gt;" class="s2" d="m235.1 313.6c0.9 0.3 1.4 1.4 1.1 2.3-0.3 1-1.3 1.5-2.3 1.2-0.9-0.3-1.5-1.3-1.2-2.3 0.4-1 1.4-1.5 2.4-1.2z"/>
					</g>
				</g>
				<g id="&lt;Group&gt;">
					<g id="&lt;Group&gt;">
						<path id="&lt;Path&gt;" class="s2" d="m239.2 333.3c0.6-0.8 1.7-1 2.5-0.4 0.9 0.6 1.1 1.7 0.5 2.6-0.6 0.8-1.8 1-2.6 0.4-0.8-0.6-1-1.8-0.4-2.6z"/>
					</g>
				</g>
				<g id="&lt;Group&gt;">
					<g id="&lt;Group&gt;">
						<path id="&lt;Path&gt;" class="s2" d="m259.2 335.5c-0.6-0.9-0.4-2 0.4-2.6 0.8-0.6 2-0.4 2.6 0.4 0.5 0.8 0.4 2-0.5 2.6-0.8 0.6-1.9 0.4-2.5-0.4z"/>
					</g>
				</g>
				<g id="&lt;Group&gt;">
					<g id="&lt;Group&gt;">
						<path id="&lt;Path&gt;" class="s5" d="m255 287.2l-0.4 2.6c-0.4 2.1-2 3.7-3.9 3.7-1.9 0-3.6-1.6-3.9-3.7l-0.4-2.6q2.1-0.3 4.3-0.3 2.2 0 4.3 0.3z"/>
					</g>
				</g>
				<g id="&lt;Group&gt;">
					<g id="&lt;Group&gt;">
						<path id="&lt;Path&gt;" class="s5" d="m244.4 287.5l0.4 2.6c0.4 2.1-0.7 4.2-2.5 4.8-1.8 0.5-3.9-0.5-4.9-2.4l-1.2-2.4q2-0.9 4-1.6 2.1-0.6 4.2-1z"/>
					</g>
				</g>
				<g id="&lt;Group&gt;">
					<g id="&lt;Group&gt;">
						<path id="&lt;Path&gt;" class="s5" d="m234.5 291l1.2 2.4c1 1.9 0.6 4.2-1 5.3-1.5 1.1-3.8 0.8-5.3-0.8l-1.9-1.8q1.6-1.5 3.3-2.8 1.8-1.3 3.7-2.3z"/>
					</g>
				</g>
				<g id="&lt;Group&gt;">
					<g id="&lt;Group&gt;">
						<path id="&lt;Path&gt;" class="s5" d="m226.2 297.5l1.8 1.8c1.6 1.6 1.9 3.8 0.8 5.4-1.2 1.5-3.4 1.9-5.4 0.9l-2.3-1.1q1-1.9 2.3-3.7 1.3-1.8 2.8-3.3z"/>
					</g>
				</g>
				<g id="&lt;Group&gt;">
					<g id="&lt;Group&gt;">
						<path id="&lt;Path&gt;" class="s5" d="m220.2 306.2l2.3 1.2c2 1 3 3 2.4 4.8-0.6 1.9-2.6 2.9-4.8 2.6l-2.6-0.4q0.4-2.1 1.1-4.2 0.7-2.1 1.6-4z"/>
					</g>
				</g>
				<g id="&lt;Group&gt;">
					<g id="&lt;Group&gt;">
						<path id="&lt;Path&gt;" class="s5" d="m217.2 316.3l2.6 0.4c2.2 0.4 3.8 2 3.8 3.9 0 1.9-1.6 3.6-3.8 3.9l-2.6 0.4q-0.2-2.1-0.3-4.3 0.1-2.2 0.3-4.3z"/>
					</g>
				</g>
				<g id="&lt;Group&gt;">
					<g id="&lt;Group&gt;">
						<path id="&lt;Path&gt;" class="s5" d="m217.5 326.8l2.6-0.4c2.2-0.3 4.2 0.8 4.8 2.6 0.6 1.8-0.4 3.9-2.4 4.9l-2.3 1.2q-0.9-2-1.6-4.1-0.7-2.1-1.1-4.2z"/>
					</g>
				</g>
				<g id="&lt;Group&gt;">
					<g id="&lt;Group&gt;">
						<path id="&lt;Path&gt;" class="s5" d="m221.1 336.8l2.3-1.2c2-1 4.2-0.6 5.4 0.9 1.1 1.6 0.8 3.8-0.8 5.4l-1.8 1.9q-1.5-1.6-2.8-3.4-1.3-1.7-2.3-3.6z"/>
					</g>
				</g>
				<g id="&lt;Group&gt;">
					<g id="&lt;Group&gt;">
						<path id="&lt;Path&gt;" class="s5" d="m227.5 345.1l1.9-1.8c1.5-1.6 3.8-1.9 5.3-0.8 1.6 1.2 2 3.4 1 5.4l-1.2 2.3q-1.9-1-3.7-2.3-1.7-1.3-3.3-2.8z"/>
					</g>
				</g>
				<g id="&lt;Group&gt;">
					<g id="&lt;Group&gt;">
						<path id="&lt;Path&gt;" class="s5" d="m236.2 351.1l1.2-2.3c1-2 3.1-3 4.9-2.4 1.8 0.6 2.9 2.6 2.5 4.8l-0.4 2.6q-2.1-0.4-4.2-1.1-2-0.7-4-1.6z"/>
					</g>
				</g>
				<g id="&lt;Group&gt;">
					<g id="&lt;Group&gt;">
						<path id="&lt;Path&gt;" class="s5" d="m246.4 354.1l0.4-2.6c0.3-2.2 2-3.8 3.9-3.8 1.9 0 3.5 1.6 3.9 3.8l0.4 2.6q-2.1 0.2-4.3 0.2-2.2 0-4.3-0.2z"/>
					</g>
				</g>
				<g id="&lt;Group&gt;">
					<g id="&lt;Group&gt;">
						<path id="&lt;Path&gt;" class="s5" d="m256.9 353.8l-0.4-2.6c-0.4-2.2 0.7-4.2 2.5-4.8 1.9-0.6 3.9 0.4 4.9 2.4l1.2 2.3q-1.9 0.9-4 1.6-2.1 0.7-4.2 1.1z"/>
					</g>
				</g>
				<g id="&lt;Group&gt;">
					<g id="&lt;Group&gt;">
						<path id="&lt;Path&gt;" class="s5" d="m266.8 350.2l-1.2-2.3c-1-2-0.6-4.2 1-5.4 1.5-1.1 3.8-0.8 5.4 0.8l1.8 1.8q-1.5 1.5-3.3 2.8-1.8 1.3-3.7 2.3z"/>
					</g>
				</g>
				<g id="&lt;Group&gt;">
					<g id="&lt;Group&gt;">
						<path id="&lt;Path&gt;" class="s5" d="m275.2 343.8l-1.9-1.9c-1.5-1.6-1.8-3.8-0.7-5.4 1.1-1.5 3.4-1.9 5.3-0.9l2.4 1.2q-1.1 1.9-2.3 3.6-1.3 1.8-2.8 3.4z"/>
					</g>
				</g>
				<g id="&lt;Group&gt;">
					<g id="&lt;Group&gt;">
						<path id="&lt;Path&gt;" class="s5" d="m281.1 335.1l-2.3-1.2c-2-1-3-3.1-2.4-4.9 0.6-1.8 2.6-2.9 4.8-2.6l2.6 0.4q-0.4 2.1-1.1 4.2-0.6 2.1-1.6 4.1z"/>
					</g>
				</g>
				<g id="&lt;Group&gt;">
					<g id="&lt;Group&gt;">
						<path id="&lt;Path&gt;" class="s5" d="m284.1 324.9l-2.6-0.4c-2.2-0.3-3.7-2-3.7-3.9 0-1.9 1.5-3.5 3.7-3.9l2.6-0.4q0.3 2.1 0.3 4.3 0 2.2-0.3 4.3z"/>
					</g>
				</g>
				<g id="&lt;Group&gt;">
					<g id="&lt;Group&gt;">
						<path id="&lt;Path&gt;" class="s5" d="m283.8 314.4l-2.6 0.4c-2.2 0.3-4.2-0.7-4.8-2.6-0.6-1.8 0.4-3.8 2.4-4.8l2.3-1.2q1 1.9 1.6 4 0.7 2.1 1.1 4.2z"/>
					</g>
				</g>
				<g id="&lt;Group&gt;">
					<g id="&lt;Group&gt;">
						<path id="&lt;Path&gt;" class="s5" d="m280.3 304.5l-2.4 1.1c-1.9 1-4.2 0.6-5.3-0.9-1.1-1.6-0.8-3.8 0.7-5.4l1.9-1.8q1.5 1.5 2.8 3.3 1.2 1.8 2.3 3.7z"/>
					</g>
				</g>
				<g id="&lt;Group&gt;">
					<g id="&lt;Group&gt;">
						<path id="&lt;Path&gt;" class="s5" d="m273.8 296.1l-1.8 1.8c-1.6 1.6-3.9 1.9-5.4 0.8-1.6-1.1-2-3.4-1-5.3l1.2-2.4q1.9 1 3.7 2.3 1.8 1.3 3.3 2.8z"/>
					</g>
				</g>
				<g id="&lt;Group&gt;">
					<g id="&lt;Group&gt;">
						<path id="&lt;Path&gt;" class="s5" d="m265.1 290.1l-1.2 2.4c-1 1.9-3 2.9-4.9 2.4-1.8-0.6-2.9-2.7-2.5-4.8l0.4-2.6q2.1 0.4 4.2 1 2.1 0.7 4 1.6z"/>
					</g>
				</g>
				<g id="&lt;Group&gt;">
					<g id="&lt;Group&gt;">
						<path id="&lt;Path&gt;" class="s2" d="m267.4 317.1c-0.9 0.3-2-0.2-2.3-1.2-0.3-0.9 0.2-2 1.2-2.3 0.9-0.3 2 0.2 2.3 1.2 0.3 1-0.2 2-1.2 2.3z"/>
					</g>
				</g>
				<g id="&lt;Group&gt;">
					<g id="&lt;Group&gt;">
						<path id="&lt;Path&gt;" class="s3" d="m253.8 320.6c0 1.8-1.4 3.2-3.1 3.2-1.8 0-3.2-1.4-3.2-3.2 0-1.7 1.4-3.1 3.2-3.1 1.7 0 3.1 1.4 3.1 3.1z"/>
					</g>
				</g>
				<g id="&lt;Group&gt;">
					<g id="&lt;Group&gt;">
						<path id="&lt;Path&gt;" class="s6" d="m249.6 292.2l-1.1-1.9 1.1-1.8h2.1l1.1 1.8-1.1 1.9z"/>
					</g>
				</g>
				<g id="&lt;Group&gt;">
					<g id="&lt;Group&gt;">
						<path id="&lt;Path&gt;" class="s6" d="m240.9 293.9l-1.6-1.4 0.4-2.1 2.1-0.7 1.5 1.4-0.4 2.1z"/>
					</g>
				</g>
				<g id="&lt;Group&gt;">
					<g id="&lt;Group&gt;">
						<path id="&lt;Path&gt;" class="s6" d="m233.1 298.2l-2-0.8-0.2-2.2 1.7-1.2 2 0.8 0.2 2.2z"/>
					</g>
				</g>
				<g id="&lt;Group&gt;">
					<g id="&lt;Group&gt;">
						<path id="&lt;Path&gt;" class="s6" d="m227 304.8l-2.1-0.3-0.9-1.9 1.3-1.8 2.1 0.3 0.9 1.9z"/>
					</g>
				</g>
				<g id="&lt;Group&gt;">
					<g id="&lt;Group&gt;">
						<path id="&lt;Path&gt;" class="s6" d="m223.3 312.8l-2.1 0.5-1.5-1.6 0.7-2 2.1-0.5 1.4 1.6z"/>
					</g>
				</g>
				<g id="&lt;Group&gt;">
					<g id="&lt;Group&gt;">
						<path id="&lt;Path&gt;" class="s6" d="m222.2 321.7l-1.8 1.1-1.9-1.1v-2.2l1.9-1 1.8 1z"/>
					</g>
				</g>
				<g id="&lt;Group&gt;">
					<g id="&lt;Group&gt;">
						<path id="&lt;Path&gt;" class="s6" d="m223.9 330.4l-1.4 1.6-2.1-0.4-0.7-2.1 1.5-1.6 2.1 0.5z"/>
					</g>
				</g>
				<g id="&lt;Group&gt;">
					<g id="&lt;Group&gt;">
						<path id="&lt;Path&gt;" class="s6" d="m228.3 338.2l-0.9 2-2.1 0.2-1.3-1.7 0.9-2 2.1-0.2z"/>
					</g>
				</g>
				<g id="&lt;Group&gt;">
					<g id="&lt;Group&gt;">
						<path id="&lt;Path&gt;" class="s6" d="m234.8 344.3l-0.2 2.1-2 0.9-1.7-1.3 0.2-2.1 2-0.9z"/>
					</g>
				</g>
				<g id="&lt;Group&gt;">
					<g id="&lt;Group&gt;">
						<path id="&lt;Path&gt;" class="s6" d="m242.9 348l0.4 2.1-1.5 1.4-2.1-0.6-0.4-2.1 1.6-1.5z"/>
					</g>
				</g>
				<g id="&lt;Group&gt;">
					<g id="&lt;Group&gt;">
						<path id="&lt;Path&gt;" class="s6" d="m251.7 349.1l1.1 1.8-1.1 1.9h-2.1l-1.1-1.9 1.1-1.8z"/>
					</g>
				</g>
				<g id="&lt;Group&gt;">
					<g id="&lt;Group&gt;">
						<path id="&lt;Path&gt;" class="s6" d="m260.5 347.3l1.6 1.5-0.5 2.1-2 0.6-1.6-1.4 0.4-2.1z"/>
					</g>
				</g>
				<g id="&lt;Group&gt;">
					<g id="&lt;Group&gt;">
						<path id="&lt;Path&gt;" class="s6" d="m268.3 343l1.9 0.9 0.2 2.1-1.7 1.3-2-0.9-0.2-2.1z"/>
					</g>
				</g>
				<g id="&lt;Group&gt;">
					<g id="&lt;Group&gt;">
						<path id="&lt;Path&gt;" class="s6" d="m274.3 336.5l2.1 0.2 0.9 2-1.2 1.7-2.2-0.2-0.8-2z"/>
					</g>
				</g>
				<g id="&lt;Group&gt;">
					<g id="&lt;Group&gt;">
						<path id="&lt;Path&gt;" class="s6" d="m278.1 328.4l2.1-0.5 1.4 1.6-0.7 2.1-2.1 0.4-1.4-1.6z"/>
					</g>
				</g>
				<g id="&lt;Group&gt;">
					<g id="&lt;Group&gt;">
						<path id="&lt;Path&gt;" class="s6" d="m279.1 319.5l1.9-1 1.8 1v2.2l-1.8 1.1-1.9-1.1z"/>
					</g>
				</g>
				<g id="&lt;Group&gt;">
					<g id="&lt;Group&gt;">
						<path id="&lt;Path&gt;" class="s6" d="m277.4 310.8l1.4-1.6 2.1 0.5 0.7 2-1.4 1.6-2.1-0.5z"/>
					</g>
				</g>
				<g id="&lt;Group&gt;">
					<g id="&lt;Group&gt;">
						<path id="&lt;Path&gt;" class="s6" d="m273.1 303l0.8-1.9 2.2-0.3 1.2 1.8-0.9 1.9-2.1 0.3z"/>
					</g>
				</g>
				<g id="&lt;Group&gt;">
					<g id="&lt;Group&gt;">
						<path id="&lt;Path&gt;" class="s6" d="m266.5 297l0.2-2.2 2-0.8 1.7 1.2-0.2 2.2-1.9 0.8z"/>
					</g>
				</g>
				<g id="&lt;Group&gt;">
					<g id="&lt;Group&gt;">
						<path id="&lt;Path&gt;" class="s6" d="m258.4 293.2l-0.4-2.1 1.6-1.4 2 0.7 0.5 2.1-1.6 1.4z"/>
					</g>
				</g>
				<g id="&lt;Group&gt;">
					<g id="&lt;Group&gt;">
						<g id="&lt;Group&gt;">
							<path id="&lt;Path&gt;" class="s7" d="m208 274.4h3.3c1.8 0 3.4 1.5 3.4 3.4v87.6c0 1.9-1.6 3.4-3.4 3.4h-3.3c-7.1 0-12.8-5.7-12.8-12.7 0-1.9-1.5-3.4-3.4-3.4-4.4 0-8-3.6-8-8.1v-46c0-4.5 3.6-8.1 8-8.1 1.9 0 3.4-1.5 3.4-3.4 0-7 5.7-12.7 12.8-12.7z"/>
						</g>
					</g>
					<g id="&lt;Group&gt;">
						<g id="&lt;Group&gt;">
							<path id="&lt;Path&gt;" class="s8" d="m195.1 355.3c-0.3-1.5-1.7-2.6-3.3-2.6-0.3 0-0.7-0.1-1-0.1v-62c0.3 0 0.7-0.1 1-0.1 1.6 0 3-1.1 3.3-2.6z"/>
						</g>
					</g>
				</g>
			</g>
		</g>
	</g>
</svg>