<svg width="71" height="70" viewBox="0 0 71 70" fill="none" xmlns="http://www.w3.org/2000/svg">
<ellipse cx="35.7628" cy="35" rx="34.8312" ry="35" fill="#5CBA99"/>
<path d="M45.8322 43H47.5282V38.504C47.5282 37.8213 47.6269 37.2773 47.8242 36.872C48.0269 36.4613 48.2935 36.1653 48.6242 35.984C48.9549 35.8027 49.3202 35.712 49.7202 35.712C50.1789 35.712 50.5522 35.8053 50.8402 35.992C51.1282 36.1787 51.3495 36.424 51.5042 36.728C51.6589 37.032 51.7629 37.3627 51.8162 37.72C51.8749 38.072 51.9042 38.416 51.9042 38.752V43H53.6002V38.2C53.6002 37.9333 53.5762 37.624 53.5282 37.272C53.4802 36.92 53.3895 36.56 53.2562 36.192C53.1229 35.824 52.9282 35.4853 52.6722 35.176C52.4215 34.8613 52.0935 34.608 51.6882 34.416C51.2829 34.224 50.7815 34.128 50.1842 34.128C49.5602 34.128 49.0055 34.24 48.5202 34.464C48.0402 34.688 47.6429 34.9973 47.3282 35.392V31.48H45.8322V43ZM55.684 43H57.372V38.64C57.372 38.1333 57.452 37.664 57.612 37.232C57.772 36.8 58.0546 36.4533 58.46 36.192C58.748 36.0053 59.0653 35.896 59.412 35.864C59.7586 35.832 60.0706 35.8533 60.348 35.928V34.36C59.9586 34.2853 59.5453 34.288 59.108 34.368C58.676 34.448 58.2973 34.608 57.972 34.848C57.652 35.0613 57.3853 35.3573 57.172 35.736V34.36H55.684V43Z" fill="white"/>
<path d="M15.0691 43.988H26.7571V41.6H18.9451L23.9491 37.136C24.5731 36.584 25.0931 36.072 25.5091 35.6C25.9251 35.128 26.2371 34.616 26.4451 34.064C26.6531 33.504 26.7571 32.832 26.7571 32.048C26.7571 30.952 26.5051 29.976 26.0011 29.12C25.5051 28.264 24.8251 27.592 23.9611 27.104C23.0971 26.608 22.1211 26.36 21.0331 26.36C19.8891 26.36 18.8691 26.6 17.9731 27.08C17.0851 27.552 16.3891 28.212 15.8851 29.06C15.3811 29.9 15.1291 30.88 15.1291 32H17.6971C17.6891 31.416 17.8251 30.88 18.1051 30.392C18.3931 29.896 18.7851 29.5 19.2811 29.204C19.7771 28.9 20.3451 28.748 20.9851 28.748C21.9131 28.748 22.6771 29.06 23.2771 29.684C23.8771 30.308 24.1771 31.084 24.1771 32.012C24.1771 32.5 24.0651 32.988 23.8411 33.476C23.6251 33.956 23.2131 34.468 22.6051 35.012L15.0811 41.756L15.0691 43.988ZM35.7663 44H38.3103V40.988H40.0263V38.612H38.3103V33.932H35.7663V38.612H30.8343L36.4503 26.72H33.5823L27.9663 38.612V40.988H35.7663V44Z" fill="white"/>
</svg>
