<svg width="16" height="18" viewBox="0 0 16 18" fill="none" xmlns="http://www.w3.org/2000/svg">
<path fill-rule="evenodd" clip-rule="evenodd" d="M15.5738 15.0013C15.8989 14.6406 16.0512 14.1307 15.9847 13.6264C15.9178 13.1217 15.64 12.6816 15.2354 12.4399C14.2199 11.8327 13.0038 11.1057 12.321 10.6975C12.0134 10.5139 11.6313 10.6035 11.4172 10.9097C11.4172 10.9101 11.4172 10.9101 11.4168 10.9101C10.9267 11.6117 10.1843 12.0401 9.3852 12.0825C8.58608 12.1248 7.81059 11.7771 7.26233 11.1308C6.7348 10.5087 6.17382 9.84704 5.65464 9.23544C5.15474 8.64602 4.91588 7.84158 5.00168 7.03794C5.08748 6.23431 5.48958 5.51418 6.09965 5.07081C6.10001 5.07081 6.10001 5.07041 6.10038 5.07041C6.40941 4.8461 6.51193 4.39667 6.33706 4.03601C5.96549 3.2707 5.32562 1.95228 4.78935 0.84849C4.57158 0.39947 4.17493 0.0912479 3.7201 0.0170164C3.26565 -0.0568116 2.8061 0.112226 2.48107 0.472895C1.84992 1.17285 1.13478 1.9668 0.638876 2.51668C0.173874 3.03267 -0.0562632 3.7536 0.0117238 4.47897C0.165876 6.09795 0.966814 9.13821 4.3658 12.9099C7.76478 16.6816 10.5046 17.5703 11.9636 17.7414C12.6173 17.8168 13.267 17.5611 13.7316 17.0455C14.2275 16.4952 14.943 15.7016 15.5738 15.0013Z" fill="black"/>
</svg>
