<svg width="335" height="104" viewBox="0 0 335 104" fill="none" xmlns="http://www.w3.org/2000/svg">
    <path d="M0 52C0 23.2812 23.2812 0 52 0H283C311.719 0 335 23.2812 335 52V52C335 80.7188 311.719 104 283 104H52C23.2812 104 0 80.7188 0 52V52Z" fill="white"/>
    <path d="M52 6H283C308.405 6 329 26.5949 329 52C329 77.4051 308.405 98 283 98H52C26.5949 98 6 77.4051 6 52C6 26.5949 26.5949 6 52 6Z" stroke="#E1E1E1" stroke-opacity="0.43" stroke-width="12"/>
    <path d="M43.2773 44.2617H40.9688V48H38.2852V44.2617H30.457V42.1406L38.2852 30.8203H40.9688V41.9766H43.2773V44.2617ZM38.2852 41.9766V37.6758C38.2852 36.1445 38.3242 34.8906 38.4023 33.9141H38.3086C38.0898 34.4297 37.7461 35.0547 37.2773 35.7891L33.0234 41.9766H38.2852ZM45.2695 46.5352C45.2695 45.9648 45.418 45.5273 45.7148 45.2227C46.0117 44.918 46.4414 44.7656 47.0039 44.7656C47.5742 44.7656 48.0078 44.9258 48.3047 45.2461C48.6016 45.5586 48.75 45.9883 48.75 46.5352C48.75 47.0898 48.5977 47.5312 48.293 47.8594C47.9961 48.1797 47.5664 48.3398 47.0039 48.3398C46.4414 48.3398 46.0117 48.1797 45.7148 47.8594C45.418 47.5391 45.2695 47.0977 45.2695 46.5352ZM57.1875 37.3008C58.9141 37.3008 60.2812 37.7578 61.2891 38.6719C62.2969 39.5859 62.8008 40.832 62.8008 42.4102C62.8008 44.2383 62.2266 45.668 61.0781 46.6992C59.9375 47.7227 58.3125 48.2344 56.2031 48.2344C54.2891 48.2344 52.7852 47.9258 51.6914 47.3086V44.8125C52.3242 45.1719 53.0508 45.4492 53.8711 45.6445C54.6914 45.8398 55.4531 45.9375 56.1562 45.9375C57.3984 45.9375 58.3438 45.6602 58.9922 45.1055C59.6406 44.5508 59.9648 43.7383 59.9648 42.668C59.9648 40.6211 58.6602 39.5977 56.0508 39.5977C55.6836 39.5977 55.2305 39.6367 54.6914 39.7148C54.1523 39.7852 53.6797 39.8672 53.2734 39.9609L52.043 39.2344L52.6992 30.8672H61.6055V33.3164H55.125L54.7383 37.5586C55.0117 37.5117 55.3438 37.457 55.7344 37.3945C56.1328 37.332 56.6172 37.3008 57.1875 37.3008ZM73.1953 30.8672L66.8203 48H64.2188L70.6055 30.8672H73.1953ZM80.2734 37.3008C82 37.3008 83.3672 37.7578 84.375 38.6719C85.3828 39.5859 85.8867 40.832 85.8867 42.4102C85.8867 44.2383 85.3125 45.668 84.1641 46.6992C83.0234 47.7227 81.3984 48.2344 79.2891 48.2344C77.375 48.2344 75.8711 47.9258 74.7773 47.3086V44.8125C75.4102 45.1719 76.1367 45.4492 76.957 45.6445C77.7773 45.8398 78.5391 45.9375 79.2422 45.9375C80.4844 45.9375 81.4297 45.6602 82.0781 45.1055C82.7266 44.5508 83.0508 43.7383 83.0508 42.668C83.0508 40.6211 81.7461 39.5977 79.1367 39.5977C78.7695 39.5977 78.3164 39.6367 77.7773 39.7148C77.2383 39.7852 76.7656 39.8672 76.3594 39.9609L75.1289 39.2344L75.7852 30.8672H84.6914V33.3164H78.2109L77.8242 37.5586C78.0977 37.5117 78.4297 37.457 78.8203 37.3945C79.2188 37.332 79.7031 37.3008 80.2734 37.3008Z" fill="black"/>
    <path d="M40.1924 69.9893C40.1924 71.6162 39.7845 72.8809 38.9688 73.7832C38.1576 74.6855 37.0068 75.1367 35.5166 75.1367C34.0081 75.1367 32.8483 74.6901 32.0371 73.7969C31.2305 72.8991 30.8271 71.6253 30.8271 69.9756C30.8271 68.3258 31.2327 67.0589 32.0439 66.1748C32.8597 65.2907 34.0218 64.8486 35.5303 64.8486C37.016 64.8486 38.1644 65.2975 38.9756 66.1953C39.7868 67.0931 40.1924 68.3577 40.1924 69.9893ZM32.5635 69.9893C32.5635 71.2197 32.8118 72.154 33.3086 72.792C33.8053 73.4255 34.5413 73.7422 35.5166 73.7422C36.4873 73.7422 37.2188 73.4277 37.7109 72.7988C38.2077 72.1699 38.4561 71.2334 38.4561 69.9893C38.4561 68.7633 38.21 67.8337 37.7178 67.2002C37.2301 66.5667 36.501 66.25 35.5303 66.25C34.5505 66.25 33.8099 66.5667 33.3086 67.2002C32.8118 67.8337 32.5635 68.7633 32.5635 69.9893ZM48.9014 73.7559H49.9951V77.6592H48.4844V75H42.168V67.4395H43.7744V73.7285H47.2949V67.4395H48.9014V73.7559ZM54.6709 75.1367C53.4951 75.1367 52.5745 74.7949 51.9092 74.1113C51.2484 73.4232 50.918 72.4775 50.918 71.2744C50.918 70.0394 51.2256 69.0687 51.8408 68.3623C52.4561 67.6559 53.3014 67.3027 54.377 67.3027C55.375 67.3027 56.1634 67.6058 56.7422 68.2119C57.321 68.818 57.6104 69.652 57.6104 70.7139V71.582H52.5723C52.5951 72.3158 52.7933 72.8809 53.167 73.2773C53.5407 73.6693 54.0671 73.8652 54.7461 73.8652C55.1927 73.8652 55.6074 73.8242 55.9902 73.7422C56.3776 73.6556 56.7923 73.5143 57.2344 73.3184V74.624C56.8424 74.8109 56.446 74.943 56.0449 75.0205C55.6439 75.098 55.1859 75.1367 54.6709 75.1367ZM54.377 68.5195C53.8665 68.5195 53.4564 68.6813 53.1465 69.0049C52.8411 69.3285 52.6589 69.8001 52.5996 70.4199H56.0312C56.0221 69.7956 55.8717 69.3239 55.5801 69.0049C55.2884 68.6813 54.8874 68.5195 54.377 68.5195ZM61.042 67.4395V70.4746H64.6035V67.4395H66.21V75H64.6035V71.7393H61.042V75H59.4355V67.4395H61.042ZM73.2031 67.4395H74.9668L71.8428 71.083L75.2334 75H73.3877L70.1201 71.165V75H68.5137V67.4395H70.1201V71.1104L73.2031 67.4395ZM81.2148 75L80.8936 73.9473H80.8389C80.4743 74.4076 80.1074 74.722 79.7383 74.8906C79.3691 75.0547 78.8952 75.1367 78.3164 75.1367C77.5736 75.1367 76.9925 74.9362 76.5732 74.5352C76.1585 74.1341 75.9512 73.5667 75.9512 72.833C75.9512 72.0537 76.2406 71.4658 76.8193 71.0693C77.3981 70.6729 78.2799 70.4564 79.4648 70.4199L80.7705 70.3789V69.9756C80.7705 69.4925 80.6566 69.1325 80.4287 68.8955C80.2054 68.654 79.8568 68.5332 79.3828 68.5332C78.9954 68.5332 78.624 68.5902 78.2686 68.7041C77.9131 68.818 77.5713 68.9525 77.2432 69.1074L76.7236 67.959C77.1338 67.7448 77.5827 67.583 78.0703 67.4736C78.5579 67.3597 79.0182 67.3027 79.4512 67.3027C80.4128 67.3027 81.1374 67.5124 81.625 67.9316C82.1172 68.3509 82.3633 69.0094 82.3633 69.9072V75H81.2148ZM78.8223 73.9062C79.4056 73.9062 79.8727 73.7445 80.2236 73.4209C80.5791 73.0928 80.7568 72.6348 80.7568 72.0469V71.3906L79.7861 71.4316C79.0296 71.459 78.4782 71.5866 78.1318 71.8145C77.79 72.0378 77.6191 72.3818 77.6191 72.8467C77.6191 73.1839 77.7194 73.446 77.9199 73.6328C78.1204 73.8151 78.4212 73.9062 78.8223 73.9062Z" fill="#828282"/>
    <path d="M134.366 38.8294C135.503 36.7445 138.497 36.7445 139.634 38.8294L141.926 43.0317C142.357 43.8229 143.121 44.3782 144.007 44.5441L148.712 45.4252C151.046 45.8623 151.971 48.7093 150.34 50.4349L147.051 53.9132C146.432 54.5681 146.14 55.4666 146.256 56.3603L146.872 61.1072C147.178 63.4621 144.756 65.2217 142.611 64.2034L138.286 62.1507C137.472 61.7642 136.528 61.7642 135.713 62.1507L131.389 64.2034C129.244 65.2217 126.822 63.4621 127.128 61.1072L127.744 56.3603C127.86 55.4666 127.568 54.5681 126.949 53.9132L123.66 50.4349C122.029 48.7093 122.954 45.8623 125.288 45.4252L129.993 44.5441C130.879 44.3782 131.643 43.8229 132.074 43.0317L134.366 38.8294Z" fill="#FFB648"/>
    <path d="M172.366 38.8294C173.503 36.7445 176.497 36.7445 177.634 38.8294L179.926 43.0317C180.357 43.8229 181.121 44.3782 182.007 44.5441L186.712 45.4252C189.046 45.8623 189.971 48.7093 188.34 50.4349L185.051 53.9132C184.432 54.5681 184.14 55.4666 184.256 56.3603L184.872 61.1072C185.178 63.4621 182.756 65.2217 180.611 64.2034L176.286 62.1507C175.472 61.7642 174.528 61.7642 173.713 62.1507L169.389 64.2034C167.244 65.2217 164.822 63.4621 165.128 61.1072L165.744 56.3603C165.86 55.4666 165.568 54.5681 164.949 53.9132L161.66 50.4349C160.029 48.7093 160.954 45.8623 163.288 45.4252L167.993 44.5441C168.879 44.3782 169.643 43.8229 170.074 43.0317L172.366 38.8294Z" fill="#FFB648"/>
    <path d="M209.366 38.8294C210.503 36.7445 213.497 36.7445 214.634 38.8294L216.926 43.0317C217.357 43.8229 218.121 44.3782 219.007 44.5441L223.712 45.4252C226.046 45.8623 226.971 48.7093 225.34 50.4349L222.051 53.9132C221.432 54.5681 221.14 55.4666 221.256 56.3603L221.872 61.1072C222.178 63.4621 219.756 65.2217 217.611 64.2034L213.286 62.1507C212.472 61.7642 211.528 61.7642 210.713 62.1507L206.389 64.2034C204.244 65.2217 201.822 63.4621 202.128 61.1072L202.744 56.3603C202.86 55.4666 202.568 54.5681 201.949 53.9132L198.66 50.4349C197.029 48.7093 197.954 45.8623 200.288 45.4252L204.993 44.5441C205.879 44.3782 206.643 43.8229 207.074 43.0317L209.366 38.8294Z" fill="#FFB648"/>
    <path d="M247.366 38.8294C248.503 36.7445 251.497 36.7445 252.634 38.8294L254.926 43.0317C255.357 43.8229 256.121 44.3782 257.007 44.5441L261.712 45.4252C264.046 45.8623 264.971 48.7093 263.34 50.4349L260.051 53.9132C259.432 54.5681 259.14 55.4666 259.256 56.3603L259.872 61.1072C260.178 63.4621 257.756 65.2217 255.611 64.2034L251.286 62.1507C250.472 61.7642 249.528 61.7642 248.714 62.1507L244.389 64.2034C242.244 65.2217 239.822 63.4621 240.128 61.1072L240.744 56.3603C240.86 55.4666 240.568 54.5681 239.949 53.9132L236.66 50.4349C235.029 48.7093 235.954 45.8623 238.288 45.4252L242.993 44.5441C243.879 44.3782 244.643 43.8229 245.074 43.0317L247.366 38.8294Z" fill="#FFB648"/>
    <path d="M283.366 38.8294C284.503 36.7445 287.497 36.7445 288.634 38.8294L290.926 43.0317C291.357 43.8229 292.121 44.3782 293.007 44.5441L297.712 45.4252C300.046 45.8623 300.971 48.7093 299.34 50.4349L296.051 53.9132C295.432 54.5681 295.14 55.4666 295.256 56.3603L295.872 61.1072C296.178 63.4621 293.756 65.2217 291.611 64.2034L287.286 62.1507C286.472 61.7642 285.528 61.7642 284.714 62.1507L280.389 64.2034C278.244 65.2217 275.822 63.4621 276.128 61.1072L276.744 56.3603C276.86 55.4666 276.568 54.5681 275.949 53.9132L272.66 50.4349C271.029 48.7093 271.954 45.8623 274.288 45.4252L278.993 44.5441C279.879 44.3782 280.643 43.8229 281.074 43.0317L283.366 38.8294Z" fill="#D7D1C7"/>
    <mask id="mask0_0_1" style="mask-type:alpha" maskUnits="userSpaceOnUse" x="271" y="37" width="30" height="28">
    <path d="M283.366 38.8294C284.503 36.7445 287.497 36.7445 288.634 38.8294L290.926 43.0317C291.357 43.8229 292.121 44.3782 293.007 44.5441L297.712 45.4252C300.046 45.8623 300.971 48.7093 299.34 50.4349L296.051 53.9132C295.432 54.5681 295.14 55.4666 295.256 56.3603L295.872 61.1072C296.178 63.4621 293.756 65.2217 291.611 64.2034L287.286 62.1507C286.472 61.7642 285.528 61.7642 284.714 62.1507L280.389 64.2034C278.244 65.2217 275.822 63.4621 276.128 61.1072L276.744 56.3603C276.86 55.4666 276.568 54.5681 275.949 53.9132L272.66 50.4349C271.029 48.7093 271.954 45.8623 274.288 45.4252L278.993 44.5441C279.879 44.3782 280.643 43.8229 281.074 43.0317L283.366 38.8294Z" fill="#D7D1C7"/>
    </mask>
    <g mask="url(#mask0_0_1)">
    <path d="M269 72H285V29H269V72Z" fill="#FFB648"/>
    </g>
    </svg>
    