<svg width="13" height="18" viewBox="0 0 13 18" fill="none" xmlns="http://www.w3.org/2000/svg">
<path d="M8.57215 7.14203C8.57215 7.64372 8.43809 8.13413 8.18691 8.55127C7.93573 8.9684 7.57872 9.29352 7.16103 9.48551C6.74333 9.67749 6.28371 9.72772 5.84029 9.62985C5.39687 9.53198 4.98956 9.29039 4.66987 8.93565C4.35018 8.5809 4.13246 8.12893 4.04426 7.63689C3.95606 7.14485 4.00133 6.63483 4.17434 6.17133C4.34736 5.70784 4.64035 5.31168 5.01626 5.03296C5.39218 4.75424 5.83414 4.60548 6.28625 4.60548C6.89251 4.60548 7.47394 4.87272 7.90263 5.34842C8.33132 5.82411 8.57215 6.4693 8.57215 7.14203ZM12.5725 7.14203C12.5725 11.8093 6.90916 17.5165 6.66914 17.7575C6.56413 17.8627 6.4277 17.9209 6.28625 17.9209C6.14479 17.9209 6.00837 17.8627 5.90336 17.7575C5.66334 17.5165 0 11.8093 0 7.14203C0 5.29201 0.662299 3.51775 1.8412 2.20959C3.0201 0.901424 4.61903 0.166504 6.28625 0.166504C7.95346 0.166504 9.55239 0.901424 10.7313 2.20959C11.9102 3.51775 12.5725 5.29201 12.5725 7.14203ZM9.71511 7.14203C9.71511 6.38951 9.51401 5.65388 9.13724 5.02818C8.76047 4.40248 8.22496 3.9148 7.59842 3.62682C6.97187 3.33885 6.28244 3.2635 5.61731 3.41031C4.95218 3.55712 4.34121 3.91949 3.86168 4.45161C3.38214 4.98372 3.05557 5.66168 2.92327 6.39975C2.79097 7.13781 2.85887 7.90284 3.11839 8.59808C3.37791 9.29332 3.8174 9.88756 4.38127 10.3056C4.94515 10.7237 5.60808 10.9469 6.28625 10.9469C7.19564 10.9469 8.06778 10.546 8.71082 9.83246C9.35386 9.11891 9.71511 8.15114 9.71511 7.14203Z" fill="black"/>
</svg>
