<svg width="95" height="95" viewBox="0 0 95 95" fill="none" xmlns="http://www.w3.org/2000/svg">
<g clip-path="url(#clip0_111_116)">
<path d="M76.497 6.77202C79.704 11.62 80.062 18.813 77.575 28.206C83.767 30.327 91.657 36.29 93.528 52.722C95.14 66.872 92.838 77.55 86.672 84.456C81.694 90.035 74.684 92.863 65.831 92.863C50.978 92.863 34.796 84.532 31.7 82.861C28.704 81.242 26.843 78.12 26.843 74.715V35.249C26.843 30.752 30.056 26.918 34.489 26.131C35.823 25.896 47.602 23.598 50.149 15.565C52.923 6.81602 59.247 1.16302 66.261 1.16302C70.4 1.16302 74.131 3.20602 76.497 6.77202ZM37.066 74.136C40.209 75.782 54.021 82.64 65.832 82.64C71.727 82.64 76.049 81.007 79.045 77.651C83.188 73.009 84.643 65.013 83.373 53.88C82.158 43.226 77.754 37.337 70.969 37.297L63.809 37.255L66.176 30.496C69.158 21.98 69.83 15.221 67.977 12.42C67.664 11.949 67.113 11.387 66.262 11.387C64.291 11.387 61.391 13.935 59.895 18.655C55.903 31.247 41.545 35.13 37.067 36.046L37.066 74.136Z" fill="#FF6433"/>
<path d="M20.011 82.123V30.336C20.011 29.218 19.105 28.312 17.986 28.312H2.023C0.906 28.312 0 29.218 0 30.336V82.123C0 83.242 0.906 84.147 2.023 84.147H17.986C19.105 84.147 20.011 83.242 20.011 82.123ZM13.927 76.173C13.927 78.335 12.167 80.095 10.005 80.095C7.843 80.095 6.083 78.335 6.083 76.173C6.083 74.011 7.843 72.251 10.005 72.251C12.167 72.251 13.927 74.011 13.927 76.173Z" fill="#FF6433"/>
</g>
<defs>
<clipPath id="clip0_111_116">
<rect width="94.026" height="94.026" fill="white"/>
</clipPath>
</defs>
</svg>
