<svg width="24" height="24" viewBox="0 0 24 24" fill="none" xmlns="http://www.w3.org/2000/svg">
<g filter="url(#filter0_b_703_93)">
<path d="M0 12C0 5.37258 5.37258 0 12 0C18.6274 0 24 5.37258 24 12C24 18.6274 18.6274 24 12 24C5.37258 24 0 18.6274 0 12Z" fill="#1E1B1B"/>
</g>
<path d="M8.99268 13.7144V10.18C8.99268 8.67335 8.99268 7.92001 9.48339 7.62962C9.97411 7.33922 10.6345 7.70177 11.9552 8.42688L14.9846 10.0901C16.3231 10.8249 16.9924 11.1924 17.0071 11.7668C17.0218 12.3412 16.3722 12.7424 15.0731 13.5448L12.0437 15.416C10.6936 16.2499 10.0185 16.6668 9.50559 16.3807C8.99268 16.0947 8.99268 15.3012 8.99268 13.7144Z" fill="white"/>
<defs>
<filter id="filter0_b_703_93" x="-80" y="-80" width="184" height="184" filterUnits="userSpaceOnUse" color-interpolation-filters="sRGB">
<feFlood flood-opacity="0" result="BackgroundImageFix"/>
<feGaussianBlur in="BackgroundImage" stdDeviation="40"/>
<feComposite in2="SourceAlpha" operator="in" result="effect1_backgroundBlur_703_93"/>
<feBlend mode="normal" in="SourceGraphic" in2="effect1_backgroundBlur_703_93" result="shape"/>
</filter>
</defs>
</svg>
