<svg width="185" height="36" viewBox="0 0 185 36" fill="none" xmlns="http://www.w3.org/2000/svg">
<path d="M15.3662 4.82936C16.5032 2.74454 19.4968 2.74453 20.6338 4.82936L22.9256 9.03174C23.3571 9.82292 24.1214 10.3782 25.0072 10.5441L29.7121 11.4252C32.0463 11.8623 32.9713 14.7093 31.3399 16.4349L28.0514 19.9132C27.4323 20.5681 27.1404 21.4666 27.2563 22.3603L27.8723 27.1072C28.1779 29.4621 25.756 31.2217 23.6107 30.2034L19.2865 28.1507C18.4724 27.7642 17.5276 27.7642 16.7135 28.1507L12.3893 30.2034C10.244 31.2217 7.82214 29.4621 8.12772 27.1072L8.74367 22.3603C8.85964 21.4666 8.5677 20.5681 7.94858 19.9132L4.66009 16.4349C3.02866 14.7093 3.95372 11.8623 6.28786 11.4252L10.9928 10.5441C11.8786 10.3782 12.6429 9.82293 13.0744 9.03174L15.3662 4.82936Z" fill="#FFB648"/>
<path d="M53.3662 4.82936C54.5032 2.74454 57.4968 2.74453 58.6338 4.82936L60.9256 9.03174C61.3571 9.82292 62.1214 10.3782 63.0072 10.5441L67.7121 11.4252C70.0463 11.8623 70.9713 14.7093 69.3399 16.4349L66.0514 19.9132C65.4323 20.5681 65.1404 21.4666 65.2563 22.3603L65.8723 27.1072C66.1779 29.4621 63.756 31.2217 61.6107 30.2034L57.2865 28.1507C56.4724 27.7642 55.5276 27.7642 54.7135 28.1507L50.3893 30.2034C48.244 31.2217 45.8221 29.4621 46.1277 27.1072L46.7437 22.3603C46.8596 21.4666 46.5677 20.5681 45.9486 19.9132L42.6601 16.4349C41.0287 14.7093 41.9537 11.8623 44.2879 11.4252L48.9928 10.5441C49.8786 10.3782 50.6429 9.82293 51.0744 9.03174L53.3662 4.82936Z" fill="#FFB648"/>
<path d="M90.3662 4.82936C91.5032 2.74454 94.4968 2.74453 95.6338 4.82936L97.9256 9.03174C98.3571 9.82292 99.1214 10.3782 100.007 10.5441L104.712 11.4252C107.046 11.8623 107.971 14.7093 106.34 16.4349L103.051 19.9132C102.432 20.5681 102.14 21.4666 102.256 22.3603L102.872 27.1072C103.178 29.4621 100.756 31.2217 98.6107 30.2034L94.2865 28.1507C93.4724 27.7642 92.5276 27.7642 91.7135 28.1507L87.3893 30.2034C85.244 31.2217 82.8221 29.4621 83.1277 27.1072L83.7437 22.3603C83.8596 21.4666 83.5677 20.5681 82.9486 19.9132L79.6601 16.4349C78.0287 14.7093 78.9537 11.8623 81.2879 11.4252L85.9928 10.5441C86.8786 10.3782 87.6429 9.82293 88.0744 9.03174L90.3662 4.82936Z" fill="#FFB648"/>
<path d="M128.366 4.82936C129.503 2.74454 132.497 2.74453 133.634 4.82936L135.926 9.03174C136.357 9.82292 137.121 10.3782 138.007 10.5441L142.712 11.4252C145.046 11.8623 145.971 14.7093 144.34 16.4349L141.051 19.9132C140.432 20.5681 140.14 21.4666 140.256 22.3603L140.872 27.1072C141.178 29.4621 138.756 31.2217 136.611 30.2034L132.286 28.1507C131.472 27.7642 130.528 27.7642 129.714 28.1507L125.389 30.2034C123.244 31.2217 120.822 29.4621 121.128 27.1072L121.744 22.3603C121.86 21.4666 121.568 20.5681 120.949 19.9132L117.66 16.4349C116.029 14.7093 116.954 11.8623 119.288 11.4252L123.993 10.5441C124.879 10.3782 125.643 9.82293 126.074 9.03174L128.366 4.82936Z" fill="#FFB648"/>
<path d="M164.366 4.82936C165.503 2.74454 168.497 2.74453 169.634 4.82936L171.926 9.03174C172.357 9.82292 173.121 10.3782 174.007 10.5441L178.712 11.4252C181.046 11.8623 181.971 14.7093 180.34 16.4349L177.051 19.9132C176.432 20.5681 176.14 21.4666 176.256 22.3603L176.872 27.1072C177.178 29.4621 174.756 31.2217 172.611 30.2034L168.286 28.1507C167.472 27.7642 166.528 27.7642 165.714 28.1507L161.389 30.2034C159.244 31.2217 156.822 29.4621 157.128 27.1072L157.744 22.3603C157.86 21.4666 157.568 20.5681 156.949 19.9132L153.66 16.4349C152.029 14.7093 152.954 11.8623 155.288 11.4252L159.993 10.5441C160.879 10.3782 161.643 9.82293 162.074 9.03174L164.366 4.82936Z" fill="#D7D1C7"/>
<mask id="mask0_482_1635" style="mask-type:alpha" maskUnits="userSpaceOnUse" x="152" y="3" width="30" height="28">
<path d="M164.366 4.82936C165.503 2.74454 168.497 2.74453 169.634 4.82936L171.926 9.03174C172.357 9.82292 173.121 10.3782 174.007 10.5441L178.712 11.4252C181.046 11.8623 181.971 14.7093 180.34 16.4349L177.051 19.9132C176.432 20.5681 176.14 21.4666 176.256 22.3603L176.872 27.1072C177.178 29.4621 174.756 31.2217 172.611 30.2034L168.286 28.1507C167.472 27.7642 166.528 27.7642 165.714 28.1507L161.389 30.2034C159.244 31.2217 156.822 29.4621 157.128 27.1072L157.744 22.3603C157.86 21.4666 157.568 20.5681 156.949 19.9132L153.66 16.4349C152.029 14.7093 152.954 11.8623 155.288 11.4252L159.993 10.5441C160.879 10.3782 161.643 9.82293 162.074 9.03174L164.366 4.82936Z" fill="#D7D1C7"/>
</mask>
<g mask="url(#mask0_482_1635)">
<rect x="166" y="38" width="16" height="43" transform="rotate(-180 166 38)" fill="#FFB648"/>
</g>
</svg>
