<svg width="257" height="104" viewBox="0 0 257 104" fill="none" xmlns="http://www.w3.org/2000/svg">
    <path d="M0 52C0 23.2812 23.2812 0 52 0H205C233.719 0 257 23.2812 257 52C257 80.7188 233.719 104 205 104H52C23.2812 104 0 80.7188 0 52Z" fill="white"/>
    <path d="M6 52C6 26.5949 26.5949 6 52 6H205C230.405 6 251 26.5949 251 52C251 77.4051 230.405 98 205 98H52C26.5949 98 6 77.4051 6 52Z" stroke="#E1E1E1" stroke-opacity="0.43" stroke-width="12"/>
    <g clip-path="url(#clip0_0_1)">
    <path d="M55.7628 87C74.9996 87 90.594 71.33 90.594 52C90.594 32.67 74.9996 17 55.7628 17C36.5261 17 20.9316 32.67 20.9316 52C20.9316 71.33 36.5261 87 55.7628 87Z" fill="#5CBA99"/>
    <path d="M65.8322 60H67.5282V55.504C67.5282 54.8213 67.6269 54.2773 67.8242 53.872C68.0269 53.4613 68.2935 53.1653 68.6242 52.984C68.9549 52.8027 69.3202 52.712 69.7202 52.712C70.1789 52.712 70.5522 52.8053 70.8402 52.992C71.1282 53.1787 71.3495 53.424 71.5042 53.728C71.6589 54.032 71.7629 54.3627 71.8162 54.72C71.8749 55.072 71.9042 55.416 71.9042 55.752V60H73.6002V55.2C73.6002 54.9333 73.5762 54.624 73.5282 54.272C73.4802 53.92 73.3895 53.56 73.2562 53.192C73.1229 52.824 72.9282 52.4853 72.6722 52.176C72.4215 51.8613 72.0935 51.608 71.6882 51.416C71.2829 51.224 70.7815 51.128 70.1842 51.128C69.5602 51.128 69.0055 51.24 68.5202 51.464C68.0402 51.688 67.6429 51.9973 67.3282 52.392V48.48H65.8322V60ZM75.684 60H77.372V55.64C77.372 55.1333 77.452 54.664 77.612 54.232C77.772 53.8 78.0546 53.4533 78.46 53.192C78.748 53.0053 79.0653 52.896 79.412 52.864C79.7586 52.832 80.0706 52.8533 80.348 52.928V51.36C79.9586 51.2853 79.5453 51.288 79.108 51.368C78.676 51.448 78.2973 51.608 77.972 51.848C77.652 52.0613 77.3853 52.3573 77.172 52.736V51.36H75.684V60Z" fill="white"/>
    <path d="M35.0691 60.988H46.7571V58.6H38.9451L43.9491 54.136C44.5731 53.584 45.0931 53.072 45.5091 52.6C45.9251 52.128 46.2371 51.616 46.4451 51.064C46.6531 50.504 46.7571 49.832 46.7571 49.048C46.7571 47.952 46.5051 46.976 46.0011 46.12C45.5051 45.264 44.8251 44.592 43.9611 44.104C43.0971 43.608 42.1211 43.36 41.0331 43.36C39.8891 43.36 38.8691 43.6 37.9731 44.08C37.0851 44.552 36.3891 45.212 35.8851 46.06C35.3811 46.9 35.1291 47.88 35.1291 49H37.6971C37.6891 48.416 37.8251 47.88 38.1051 47.392C38.3931 46.896 38.7851 46.5 39.2811 46.204C39.7771 45.9 40.3451 45.748 40.9851 45.748C41.9131 45.748 42.6771 46.06 43.2771 46.684C43.8771 47.308 44.1771 48.084 44.1771 49.012C44.1771 49.5 44.0651 49.988 43.8411 50.476C43.6251 50.956 43.2131 51.468 42.6051 52.012L35.0811 58.756L35.0691 60.988ZM55.7663 61H58.3103V57.988H60.0263V55.612H58.3103V50.932H55.7663V55.612H50.8343L56.4503 43.72H53.5823L47.9663 55.612V57.988H55.7663V61Z" fill="white"/>
    </g>
    <path d="M110.234 54.5625C110.234 56.8542 108.766 58 105.828 58H102.508V46.5781H109.477V48.1797H104.375V51.2188H105.734C108.734 51.2188 110.234 52.3333 110.234 54.5625ZM104.375 56.4297H105.719C106.615 56.4297 107.271 56.2839 107.688 55.9922C108.104 55.6953 108.312 55.2188 108.312 54.5625C108.312 53.9323 108.102 53.4792 107.68 53.2031C107.263 52.9219 106.534 52.7812 105.492 52.7812H104.375V56.4297ZM114.148 52.8125H115.898C117.107 52.8125 118 53.0208 118.578 53.4375C119.156 53.8542 119.445 54.4792 119.445 55.3125C119.445 56.2031 119.143 56.875 118.539 57.3281C117.94 57.776 117.06 58 115.898 58H112.312V49.3594H114.148V52.8125ZM117.625 55.3594C117.625 54.9271 117.464 54.625 117.141 54.4531C116.823 54.2812 116.365 54.1953 115.766 54.1953H114.148V56.6406H115.531C116.271 56.6406 116.805 56.5365 117.133 56.3281C117.461 56.1198 117.625 55.7969 117.625 55.3594ZM122.648 58H120.805V49.3594H122.648V58ZM128.766 58.1562C127.458 58.1562 126.464 57.776 125.781 57.0156C125.104 56.25 124.766 55.1536 124.766 53.7266C124.766 52.2734 125.12 51.1562 125.828 50.375C126.542 49.5938 127.57 49.2031 128.914 49.2031C129.826 49.2031 130.646 49.3724 131.375 49.7109L130.82 51.1875C130.044 50.8854 129.404 50.7344 128.898 50.7344C127.404 50.7344 126.656 51.7266 126.656 53.7109C126.656 54.6797 126.841 55.4089 127.211 55.8984C127.586 56.3828 128.133 56.625 128.852 56.625C129.669 56.625 130.443 56.4219 131.172 56.0156V57.6172C130.844 57.8099 130.492 57.9479 130.117 58.0312C129.747 58.1146 129.297 58.1562 128.766 58.1562ZM139.695 49.3594V50.7969H136.883V58H135.039V50.7969H132.227V49.3594H139.695ZM145.742 58.1562C144.648 58.1562 143.799 57.763 143.195 56.9766H143.086C143.159 57.7057 143.195 58.1484 143.195 58.3047V61.8438H141.359V49.3594H142.844C142.885 49.5208 142.971 49.9062 143.102 50.5156H143.195C143.768 49.6406 144.628 49.2031 145.773 49.2031C146.852 49.2031 147.69 49.5938 148.289 50.375C148.893 51.1562 149.195 52.2526 149.195 53.6641C149.195 55.0755 148.888 56.1771 148.273 56.9688C147.664 57.7604 146.82 58.1562 145.742 58.1562ZM145.297 50.7031C144.568 50.7031 144.034 50.9167 143.695 51.3438C143.362 51.7708 143.195 52.4531 143.195 53.3906V53.6641C143.195 54.7161 143.362 55.4792 143.695 55.9531C144.029 56.4219 144.573 56.6562 145.328 56.6562C145.964 56.6562 146.453 56.3958 146.797 55.875C147.141 55.3542 147.312 54.612 147.312 53.6484C147.312 52.6797 147.141 51.9479 146.797 51.4531C146.458 50.9531 145.958 50.7031 145.297 50.7031ZM153.164 52.8125H154.914C156.122 52.8125 157.016 53.0208 157.594 53.4375C158.172 53.8542 158.461 54.4792 158.461 55.3125C158.461 56.2031 158.159 56.875 157.555 57.3281C156.956 57.776 156.076 58 154.914 58H151.328V49.3594H153.164V52.8125ZM156.641 55.3594C156.641 54.9271 156.479 54.625 156.156 54.4531C155.839 54.2812 155.38 54.1953 154.781 54.1953H153.164V56.6406H154.547C155.286 56.6406 155.82 56.5365 156.148 56.3281C156.477 56.1198 156.641 55.7969 156.641 55.3594ZM161.664 58H159.82V49.3594H161.664V58ZM166.055 49.3594V53.7891C166.055 54.3047 166.013 55.0625 165.93 56.0625L170.266 49.3594H172.508V58H170.742V53.6484C170.742 53.4089 170.755 53.0208 170.781 52.4844C170.812 51.9479 170.839 51.5573 170.859 51.3125L166.539 58H164.297V49.3594H166.055ZM168.344 48.3047C167.24 48.3047 166.43 48.1068 165.914 47.7109C165.404 47.3099 165.12 46.6432 165.062 45.7109H166.727C166.758 46.0859 166.828 46.3776 166.938 46.5859C167.052 46.7943 167.214 46.9453 167.422 47.0391C167.635 47.1276 167.958 47.1719 168.391 47.1719C168.901 47.1719 169.289 47.0599 169.555 46.8359C169.82 46.6068 169.982 46.2318 170.039 45.7109H171.734C171.656 46.6068 171.341 47.263 170.789 47.6797C170.237 48.0964 169.422 48.3047 168.344 48.3047ZM183.664 58.1562C182.57 58.1562 181.721 57.763 181.117 56.9766H181.008C181.081 57.7057 181.117 58.1484 181.117 58.3047V61.8438H179.281V49.3594H180.766C180.807 49.5208 180.893 49.9062 181.023 50.5156H181.117C181.69 49.6406 182.549 49.2031 183.695 49.2031C184.773 49.2031 185.612 49.5938 186.211 50.375C186.815 51.1562 187.117 52.2526 187.117 53.6641C187.117 55.0755 186.81 56.1771 186.195 56.9688C185.586 57.7604 184.742 58.1562 183.664 58.1562ZM183.219 50.7031C182.49 50.7031 181.956 50.9167 181.617 51.3438C181.284 51.7708 181.117 52.4531 181.117 53.3906V53.6641C181.117 54.7161 181.284 55.4792 181.617 55.9531C181.951 56.4219 182.495 56.6562 183.25 56.6562C183.885 56.6562 184.375 56.3958 184.719 55.875C185.062 55.3542 185.234 54.612 185.234 53.6484C185.234 52.6797 185.062 51.9479 184.719 51.4531C184.38 50.9531 183.88 50.7031 183.219 50.7031ZM193.023 58.1562C191.68 58.1562 190.628 57.7656 189.867 56.9844C189.112 56.1979 188.734 55.1172 188.734 53.7422C188.734 52.3307 189.086 51.2214 189.789 50.4141C190.492 49.6068 191.458 49.2031 192.688 49.2031C193.828 49.2031 194.729 49.5495 195.391 50.2422C196.052 50.9349 196.383 51.888 196.383 53.1016V54.0938H190.625C190.651 54.9323 190.878 55.5781 191.305 56.0312C191.732 56.4792 192.333 56.7031 193.109 56.7031C193.62 56.7031 194.094 56.6562 194.531 56.5625C194.974 56.4635 195.448 56.3021 195.953 56.0781V57.5703C195.505 57.7839 195.052 57.9349 194.594 58.0234C194.135 58.112 193.612 58.1562 193.023 58.1562ZM192.688 50.5938C192.104 50.5938 191.635 50.7786 191.281 51.1484C190.932 51.5182 190.724 52.0573 190.656 52.7656H194.578C194.568 52.0521 194.396 51.513 194.062 51.1484C193.729 50.7786 193.271 50.5938 192.688 50.5938ZM203.43 56.2422L203.531 55.8672C203.745 55.0911 203.93 54.4948 204.086 54.0781L206.023 49.3594H208.469V58H206.773V51.0234L206.633 51.4922C206.398 52.3307 206.201 52.9479 206.039 53.3438L204.148 58H202.758L200.867 53.3125C200.607 52.6354 200.367 51.8724 200.148 51.0234V58H198.469V49.3594H200.898L202.773 53.9375C202.94 54.3594 203.159 55.1276 203.43 56.2422ZM218.758 53.6641C218.758 55.0755 218.396 56.1771 217.672 56.9688C216.948 57.7604 215.94 58.1562 214.648 58.1562C213.841 58.1562 213.128 57.974 212.508 57.6094C211.888 57.2448 211.411 56.7214 211.078 56.0391C210.745 55.3568 210.578 54.5651 210.578 53.6641C210.578 52.263 210.938 51.1693 211.656 50.3828C212.375 49.5964 213.388 49.2031 214.695 49.2031C215.945 49.2031 216.935 49.6068 217.664 50.4141C218.393 51.2161 218.758 52.2995 218.758 53.6641ZM212.469 53.6641C212.469 55.6589 213.206 56.6562 214.68 56.6562C216.138 56.6562 216.867 55.6589 216.867 53.6641C216.867 51.6901 216.133 50.7031 214.664 50.7031C213.893 50.7031 213.333 50.9583 212.984 51.4688C212.641 51.9792 212.469 52.7109 212.469 53.6641ZM222.711 49.3594V52.8281H226.781V49.3594H228.617V58H226.781V54.2734H222.711V58H220.875V49.3594H222.711ZM237.742 49.3594V50.7969H234.93V58H233.086V50.7969H230.273V49.3594H237.742Z" fill="black"/>
    <defs>
    <clipPath id="clip0_0_1">
    <rect width="71" height="70" fill="white" transform="translate(20 17)"/>
    </clipPath>
    </defs>
    </svg>
    